<svg width="78" height="91" viewBox="0 0 78 91" fill="none" xmlns="http://www.w3.org/2000/svg">
<path d="M23.693 84.7379V82.3728C23.693 82.3728 18.9111 83.301 15.5802 83.301C12.2493 83.301 4.78666 81.4212 4.78666 76.1681C4.78666 70.915 11.7264 69.5158 14.7039 69.5158C17.6814 69.5158 23.4527 70.6559 23.4527 70.6559V68.2908C23.4527 68.2908 19.3963 67.4146 14.9677 67.4146C10.5391 67.4146 0 68.908 0 76.5214C0 84.1349 10.5061 85.3645 14.5296 85.3645C18.553 85.3645 23.6883 84.7426 23.6883 84.7426" fill="#008271"/>
<path d="M37.379 67.9424L25.7422 84.9972H29.8033L32.6536 80.7241H45.6096L51.9133 90.6272H56.813L42.0196 67.9424H37.3837H37.379ZM39.1269 70.8116L44.2198 78.7029H34.0387L39.1316 70.8116H39.1269Z" fill="#008271"/>
<path d="M72.9777 76.4792H67.442V78.5381H72.9777V83.0373C71.7104 83.1881 70.3488 83.3059 69.171 83.3059C65.8448 83.3059 58.3775 81.4261 58.3775 76.173C58.3775 70.9199 65.3172 69.5207 68.2947 69.5207C71.2722 69.5207 77.0435 70.6608 77.0435 70.6608V68.2957C77.0435 68.2957 72.9872 67.4194 68.5585 67.4194C64.13 67.4194 53.5908 68.9082 53.5908 76.5216C53.5908 84.135 64.097 85.3647 68.1204 85.3647C72.1438 85.3647 77.2791 84.7428 77.2791 84.7428V76.4839H72.9777V76.4792Z" fill="#008271"/>
<path d="M24.2871 19.5293V42.5721H28.1786V23.515L24.2871 19.5293Z" fill="#008271"/>
<path d="M27.7207 17.4751L31.5227 21.3666H49.1146V60.8377H53.0061V17.4751H27.7207Z" fill="#008271"/>
<rect x="41.4072" y="40.1504" width="4.94213" height="2.48755" fill="#008271"/>
<path d="M0.0136719 0.373047V60.8376H3.90519V4.26456H73.3871V60.8376H77.2786V0.373047H0.0136719Z" fill="#008271"/>
</svg>
