<svg width="40" height="33" viewBox="0 0 40 33" fill="none" xmlns="http://www.w3.org/2000/svg">
<path d="M30.5014 12.8575H21.0014V16.3575C21.0014 18.8388 18.9826 20.8575 16.5014 20.8575C14.0202 20.8575 12.0014 18.8388 12.0014 16.3575V8.75752L7.94516 11.195C6.73891 11.9138 6.00142 13.22 6.00142 14.62V17.5763L1.00142 20.4638C0.0451754 21.0138 -0.286074 22.2387 0.270175 23.195L5.27017 31.8575C5.82017 32.8137 7.04516 33.1387 8.00141 32.5887L14.4639 28.8575H23.0014C25.2076 28.8575 27.0014 27.0637 27.0014 24.8575H28.0014C29.1076 24.8575 30.0014 23.9637 30.0014 22.8575V18.8575H30.5014C31.3326 18.8575 32.0014 18.1888 32.0014 17.3575V14.3575C32.0014 13.5263 31.3326 12.8575 30.5014 12.8575ZM39.7326 10.52L34.7326 1.85753C34.1826 0.901285 32.9576 0.576285 32.0014 1.12628L25.5389 4.85753H19.1514C18.4014 4.85753 17.6701 5.07003 17.0326 5.46378L14.9389 6.77002C14.3514 7.13252 14.0014 7.77627 14.0014 8.46377V16.3575C14.0014 17.7388 15.1201 18.8575 16.5014 18.8575C17.8826 18.8575 19.0014 17.7388 19.0014 16.3575V10.8575H30.5014C32.4326 10.8575 34.0014 12.4263 34.0014 14.3575V16.1388L39.0014 13.2513C39.9576 12.695 40.2826 11.4763 39.7326 10.52Z" fill="url(#paint0_linear_31_4452)"/>
<defs>
<linearGradient id="paint0_linear_31_4452" x1="20" y1="0.858887" x2="20" y2="32.8561" gradientUnits="userSpaceOnUse">
<stop stop-color="#008271"/>
<stop offset="1" stop-color="#00B39B"/>
</linearGradient>
</defs>
</svg>
