<svg width="40" height="32" viewBox="0 0 40 32" fill="none" xmlns="http://www.w3.org/2000/svg">
<g clip-path="url(#clip0_31_4483)">
<path d="M8.00091 6C8.59425 6 9.17427 5.82405 9.66762 5.49441C10.161 5.16477 10.5455 4.69623 10.7725 4.14805C10.9996 3.59987 11.059 2.99667 10.9433 2.41473C10.8275 1.83279 10.5418 1.29824 10.1222 0.878681C9.70267 0.459123 9.16812 0.173401 8.58618 0.0576455C8.00424 -0.0581102 7.40104 0.00129986 6.85286 0.228363C6.30468 0.455426 5.83615 0.839943 5.5065 1.33329C5.17686 1.82664 5.00091 2.40666 5.00091 3C5.00091 3.79565 5.31698 4.55871 5.87959 5.12132C6.4422 5.68393 7.20526 6 8.00091 6ZM32.0009 6C32.5943 6 33.1743 5.82405 33.6676 5.49441C34.161 5.16477 34.5455 4.69623 34.7725 4.14805C34.9996 3.59987 35.059 2.99667 34.9433 2.41473C34.8275 1.83279 34.5418 1.29824 34.1222 0.878681C33.7027 0.459123 33.1681 0.173401 32.5862 0.0576455C32.0042 -0.0581102 31.401 0.00129986 30.8529 0.228363C30.3047 0.455426 29.8361 0.839943 29.5065 1.33329C29.1769 1.82664 29.0009 2.40666 29.0009 3C29.0009 3.79565 29.317 4.55871 29.8796 5.12132C30.4422 5.68393 31.2053 6 32.0009 6ZM39.8569 29.255L37.1009 22.38L34.5319 25.28L34.4069 26.417L36.1379 30.742C36.2866 31.1142 36.5437 31.4332 36.8759 31.6575C37.2081 31.8818 37.6001 32.0011 38.0009 32C38.256 32.0013 38.5088 31.9524 38.7449 31.856C39.237 31.6582 39.6303 31.2731 39.8385 30.7853C40.0466 30.2976 40.0525 29.7471 39.8549 29.255H39.8569ZM37.7179 16.143L36.5619 11.131C36.4186 10.5122 36.1318 9.93588 35.7246 9.44844C35.3174 8.961 34.8013 8.57616 34.2179 8.325C33.6589 8.07931 33.0496 7.96986 32.4401 8.00568C31.8306 8.04149 31.2383 8.22154 30.7119 8.531C29.2949 9.36648 28.2261 10.6842 27.7009 12.243L27.0009 14.362L26.0009 15V9C26.0009 8.73478 25.8956 8.48043 25.708 8.29289C25.5205 8.10536 25.2661 8 25.0009 8H15.0009C14.7357 8 14.4813 8.10536 14.2938 8.29289C14.1063 8.48043 14.0009 8.73478 14.0009 9V15L12.9949 14.363L12.2889 12.244C11.7687 10.6834 10.7004 9.36419 9.28191 8.531C8.75554 8.22161 8.16323 8.04161 7.55372 8.0058C6.9442 7.96999 6.33489 8.07939 5.77591 8.325C5.19255 8.57616 4.67643 8.961 4.26925 9.44844C3.86206 9.93588 3.57523 10.5122 3.43191 11.131L2.28191 16.143C2.13942 16.7627 2.14674 17.4075 2.30326 18.0239C2.45978 18.6402 2.76099 19.2103 3.18191 19.687L7.38191 24.431L8.01291 30.218C8.06661 30.7077 8.29919 31.1604 8.66605 31.4893C9.03291 31.8181 9.50824 32 10.0009 32C10.0759 32 10.1449 31.994 10.2199 31.988C10.747 31.9299 11.2294 31.6649 11.5611 31.2512C11.8928 30.8376 12.0467 30.3091 11.9889 29.782L11.3579 23.982C11.2642 23.1704 10.9239 22.4071 10.3829 21.795L7.67591 18.73L8.77591 14.336L9.20091 15.612C9.47826 16.4383 10.0153 17.1528 10.7319 17.649L13.9259 19.68C14.258 19.8594 14.6244 19.9661 15.0009 19.993H25.0009C25.3773 19.9664 25.7438 19.86 26.0759 19.681L29.2699 17.65C29.988 17.1549 30.5254 16.4396 30.8009 15.612L31.2259 14.337L32.3259 18.731L29.6199 21.793C29.0789 22.4051 28.7386 23.1684 28.6449 23.98L28.0139 29.78C27.9561 30.3071 28.11 30.8356 28.4417 31.2492C28.7734 31.6629 29.2558 31.9279 29.7829 31.986C29.8579 31.992 29.9269 31.998 30.0019 31.998C30.4943 31.9978 30.9692 31.8159 31.3358 31.4873C31.7025 31.1587 31.935 30.7064 31.9889 30.217L32.6199 24.43L36.8199 19.686C37.2393 19.2084 37.5395 18.6382 37.6959 18.0222C37.8524 17.4062 37.8606 16.7618 37.7199 16.142L37.7179 16.143ZM2.89391 22.38L0.14491 29.255C0.0395592 29.5002 -0.0156715 29.7639 -0.0175296 30.0307C-0.0193877 30.2975 0.0321643 30.562 0.13409 30.8086C0.236017 31.0552 0.386256 31.2789 0.57596 31.4666C0.765665 31.6542 0.990999 31.802 1.23869 31.9012C1.48638 32.0005 1.75143 32.0491 2.01821 32.0443C2.285 32.0396 2.54813 31.9814 2.79212 31.8734C3.0361 31.7654 3.256 31.6096 3.43887 31.4153C3.62174 31.221 3.76387 30.9921 3.85691 30.742L5.58791 26.417L5.46291 25.28L2.89391 22.38Z" fill="url(#paint0_linear_31_4483)"/>
</g>
<defs>
<linearGradient id="paint0_linear_31_4483" x1="19.9907" y1="0" x2="19.9907" y2="32.0447" gradientUnits="userSpaceOnUse">
<stop stop-color="#008271"/>
<stop offset="1" stop-color="#00B39B"/>
</linearGradient>
<clipPath id="clip0_31_4483">
<rect width="40" height="31.999" fill="white"/>
</clipPath>
</defs>
</svg>
