<svg width="40" height="43" viewBox="0 0 40 43" fill="none" xmlns="http://www.w3.org/2000/svg">
<g clip-path="url(#clip0_31_4472)">
<path d="M39.2782 25.0001C39.8956 24.9392 39.8347 24.2088 39.8347 24.2088C39.4434 24.2088 38.9216 23.6175 38.9216 23.6175L39.8347 23.2262C39.6086 23.1566 38.4608 22.7044 38.426 22.374C38.3912 22.0435 39.9999 21.9827 39.9999 21.9827C39.7043 21.5566 37.739 21.3305 37.6695 20.9392C37.5999 20.5479 38.8695 20.2783 38.8695 20.2783C38.5216 19.9305 36.7303 19.9827 36.7303 19.9827C36.7303 19.9827 37.5129 19.7827 37.3912 19.4696C37.2695 19.1479 38.3477 18.687 38.3477 18.687C37.026 18.2001 35.2347 19.4262 34.8869 18.9305C34.539 18.4435 35.7477 18.0696 35.7477 18.0696C35.426 17.9392 34.7738 18.1914 34.2608 18.4088L30.9738 14.0435C31.0869 13.9827 31.1564 13.9392 31.1564 13.9131C31.1564 13.7653 32.1043 13.5827 33.1043 13.6175C34.1043 13.6522 33.7912 14.2349 33.7912 14.6175C33.7912 15.0001 34.1825 16.174 34.1825 16.174C34.3912 16.0957 34.3303 14.7653 34.5912 15.3044C34.8521 15.8435 36.0347 16.4957 36.4521 16.9566C36.8782 17.4175 37.5303 17.287 37.5303 17.287C36.8782 17.0435 36.7477 16.3044 36.6434 15.9653C36.5477 15.6175 35.5999 15.0783 35.5999 15.0783C35.5999 15.0783 35.4347 14.5914 35.8956 14.6522C36.3564 14.7218 37.3477 15.3218 37.8434 15.5392C38.3303 15.7479 39.0521 16.7305 39.0521 16.7305C39.0521 16.7305 38.8434 15.8349 38.6347 15.4175C38.426 15.0088 37.8347 14.7305 37.5825 14.5479C37.3216 14.3653 37.3129 14.0435 37.6956 13.9566C38.0782 13.8696 38.6434 12.9392 38.6434 12.9392C38.226 13.2088 36.9738 13.0957 36.5303 12.8435C36.0869 12.5827 35.1129 12.2088 34.539 12.2783C33.9651 12.3479 32.8521 12.487 32.1825 12.3914C31.5129 12.2957 30.5912 12.9044 30.5912 12.9044C30.5912 12.9044 29.8521 11.4088 29.5564 10.7479C29.2608 10.087 29.2608 8.71311 29.1651 7.90442C29.0695 7.09572 29.6347 6.3392 29.7825 5.85224C29.9303 5.36529 30.9303 4.47833 31.8782 4.66094C32.826 4.84355 32.0782 5.70442 31.8434 6.11311C31.6173 6.52181 31.7912 7.3392 31.7912 7.3392C31.8608 6.91311 32.4086 6.70442 32.5129 6.9479C32.6086 7.19137 32.1651 7.65224 32.1043 7.84355C32.0347 8.04355 32.6608 8.99137 32.6608 8.99137C32.4782 8.02616 33.1043 7.52181 33.3477 7.41746C33.5912 7.32181 33.3477 7.89572 33.626 8.38268C33.9043 8.86963 35.0173 9.59137 35.0173 9.59137C35.1303 8.60876 34.1999 7.66094 34.3129 7.34789C34.426 7.03485 34.6608 7.29572 35.0782 7.62616C35.5043 7.95659 36.1129 7.95659 36.1129 7.95659C36.1129 7.95659 35.7825 7.49572 35.5564 7.17398C35.3303 6.84355 35.4434 6.37398 35.4782 6.11311C35.5129 5.85224 35.9043 5.91311 36.0956 5.9479C36.2956 5.98268 35.0521 4.37398 34.2956 4.1479C33.539 3.92181 34.0956 3.59137 32.2695 3.42616C30.4347 3.26094 29.5564 4.66963 28.4782 6.50442C27.3999 8.3392 29.6869 13.6957 29.6869 13.6957C28.4869 14.774 28.2173 15.3653 28.5303 17.5218C28.8434 19.6783 33.8521 20.2001 33.8521 20.2001C33.8521 20.2001 35.9912 21.2088 35.026 23.4435C34.0695 25.6783 33.0173 24.8957 32.0347 24.7653C31.0521 24.6349 30.9216 24.5653 30.139 23.9479C29.3564 23.3305 26.6695 22.9044 25.5564 22.2175C24.4434 21.5305 24.0869 20.3566 23.9825 20.1827C23.8869 20.0088 23.026 18.7305 23.2956 18.3218C23.5651 17.9044 23.9825 18.7653 23.9825 18.7653C24.1303 18.374 23.9303 17.4175 24.0782 17.2435C24.226 17.0696 24.7129 18.3479 24.7129 18.3479C24.8086 18.1305 25.0347 17.3392 24.8086 16.8957C24.5912 16.4522 25.026 16.087 25.5216 15.9131C26.0173 15.7392 26.2782 16.5479 26.2782 16.5479C26.3738 16.4262 26.0086 14.9566 26.3738 14.8783C26.739 14.8088 27.1303 15.4696 27.1303 15.4696C27.1825 15.2696 27.1825 14.4609 27.1825 14.4609C26.7912 13.6522 27.1912 14.0175 27.2347 13.4435C27.2695 12.8696 26.6347 12.2696 26.9999 12.0175C27.3651 11.7653 28.2869 13.0001 28.2869 13.0001C28.4086 12.1392 27.539 11.3479 27.6173 10.9479C27.6956 10.5479 27.5477 10.1131 27.6173 9.77398C27.6782 9.42616 27.0695 8.66094 27.0695 8.46963C27.0695 8.27833 27.539 8.3479 27.539 8.3479C27.539 7.86963 26.7912 7.24355 26.7912 7.04355C26.7912 6.84355 27.339 7.16529 27.3216 7.06963C27.2956 6.97398 26.313 5.84355 26.0434 5.7479C25.7738 5.65224 24.426 5.06963 24.0608 5.06963C24.0086 5.06963 23.826 5.06963 23.5738 5.06094V3.76529C23.5738 3.76529 23.9825 2.83485 24.026 2.51311C24.0782 2.19137 24.8086 1.01746 25.1043 0.756591C25.3999 0.495721 24.2695 0.434852 24.0521 0.582678C23.8347 0.730504 23.5477 1.11311 23.2695 1.11311C22.9912 1.11311 22.7216 1.06094 22.6782 1.37398C22.6434 1.67833 23.226 1.72181 23.1825 2.18268C23.1303 2.65224 22.4695 3.16529 22.2608 3.16529C22.0521 3.16529 21.5129 2.89572 21.4608 2.46963C21.4086 2.04355 21.3999 1.81746 21.3999 1.81746C21.3999 1.81746 22.1303 1.75659 22.0782 1.20876C22.026 0.660939 21.4956 0.695721 21.4782 0.695721C21.4608 0.695721 21.6521 -0.0173224 20.9564 6.88978e-05C20.2608 -0.0173224 20.4347 0.695721 20.4173 0.695721C20.3999 0.695721 19.8695 0.660939 19.8173 1.20876C19.7651 1.75659 20.4956 1.81746 20.4956 1.81746C20.4956 1.81746 20.4869 2.03485 20.4347 2.46963C20.3825 2.89572 19.8434 3.16529 19.6347 3.16529C19.426 3.16529 18.7651 2.65224 18.7129 2.18268C18.6608 1.71311 19.2521 1.67833 19.2173 1.37398C19.1825 1.06963 18.913 1.11311 18.626 1.11311C18.339 1.11311 18.0608 0.730504 17.8434 0.582678C17.626 0.434852 16.4956 0.495721 16.7912 0.756591C17.0869 1.01746 17.826 2.19137 17.8695 2.51311C17.9129 2.83485 18.3216 3.76529 18.3216 3.76529V5.11311C18.2695 5.12181 18.226 5.1392 18.2086 5.15659C17.8956 5.40007 17.0173 5.50442 16.226 5.5479C15.4434 5.60007 14.3651 6.1305 14.1564 6.29572C13.9477 6.45224 14.0695 6.89572 14.1477 7.20007C14.2173 7.50442 13.9738 7.66963 14.0347 8.14789C14.0956 8.62616 14.539 8.80876 14.6869 9.11311C14.8347 9.41746 15.2782 9.79137 15.2782 9.79137C15.2782 9.79137 15.8173 9.31311 16.4086 9.21746C16.9999 9.12181 17.1564 10.3479 17.1564 10.3479C17.1564 10.3479 16.0869 10.2349 14.7651 10.3479C13.4434 10.4609 11.9651 9.12181 11.9651 9.12181C11.2782 11.3566 15.313 11.0349 15.313 11.0349V11.6001H15.0347C14.5303 12.1479 15.7216 13.1305 15.7216 13.1305C15.7216 13.1305 14.3477 13.6522 14.1825 13.6175C14.0173 13.5827 11.6956 11.4262 10.0956 10.4435C8.49556 9.46094 8.65208 7.62616 8.65208 7.62616C8.65208 7.24355 9.2086 6.86963 9.73904 6.56529C10.2695 6.26094 10.7738 5.81746 10.7303 5.37398C10.6956 4.9305 10.3825 4.72181 10.3999 4.39137C10.4086 4.06094 10.1999 3.63485 9.97382 3.42616C9.74773 3.21746 9.56512 3.27833 9.76512 3.54789C9.96512 3.81746 9.91295 4.22616 9.62599 4.3305C9.33904 4.43485 9.12165 4.36529 8.76512 4.51311C8.4086 4.66094 8.62599 5.38268 8.49556 5.9479C8.35643 6.51311 7.72165 6.70442 7.32165 6.43485C6.91295 6.16529 7.02599 5.23485 7.02599 4.65224C7.02599 4.06963 6.91295 3.86963 6.53904 3.82616C6.16512 3.78268 5.97382 3.98268 5.15643 3.71311C4.33034 3.44355 3.85208 4.54789 3.85208 4.54789C4.39991 4.07833 4.92165 4.52181 4.92165 4.52181C4.82599 4.80007 5.22599 5.27833 5.70425 5.51311C6.18252 5.7479 5.91295 6.3392 5.35643 6.38268C4.8086 6.43485 4.26078 5.90442 3.92165 5.91311C3.57382 5.92181 3.59991 6.57398 3.59991 6.57398C2.85208 6.68703 2.38252 7.66963 2.38252 7.66963C2.58252 7.29572 3.4173 7.22616 3.57382 7.68703C3.73904 8.14789 3.90425 8.14789 4.83469 8.14789C5.76512 8.14789 5.78252 8.70442 5.76512 9.26094C5.74773 9.81746 4.85208 10.3914 4.73034 10.9827C4.6173 11.574 5.26947 11.7479 5.26947 12.2609C5.26947 12.774 4.6173 12.687 4.6173 12.687C4.91295 12.9305 5.93904 12.3566 6.17382 12.1827C6.39991 12.0001 7.24338 11.7305 7.50425 12.1218C7.76512 12.5131 7.56512 12.8088 7.56512 12.8088C7.56512 12.8088 8.24338 12.6783 8.2173 13.1218C8.19991 13.5131 7.6086 13.9653 7.47817 14.0696C7.66078 13.974 8.6086 13.8522 8.55643 14.1131C8.49556 14.3914 7.86947 14.7653 7.86947 14.7653C7.99121 14.6957 9.13034 14.8522 8.90425 15.0609C8.67817 15.2696 8.85208 15.8609 8.85208 15.8609C8.92165 15.6175 9.6086 15.4783 9.48686 15.7479C9.36512 16.0175 9.58252 16.4696 9.58252 16.4696C9.58252 16.4696 10.2782 15.8696 10.539 15.9914C10.7999 16.1131 10.426 16.4001 10.2347 16.5044C10.0347 16.6175 10.0956 16.8088 10.0173 17.1044C9.93904 17.4001 9.47817 17.174 9.47817 17.174C9.47817 17.174 9.62599 17.3218 9.70425 17.5827C9.78251 17.8435 9.62599 17.8609 8.03469 18.6262C6.45208 19.3914 4.96512 19.1914 4.53904 18.7827C4.11295 18.374 4.73904 17.4001 4.78252 16.8435C4.83469 16.287 3.94773 16.3566 3.94773 16.3566C3.94773 16.3566 3.92165 16.1131 3.39991 15.7479C2.87817 15.3914 2.33904 15.9131 2.33904 15.9131C2.65208 15.9131 3.42599 16.3827 3.02599 16.5827C2.62599 16.7914 2.92165 17.1914 3.07817 17.6262C3.23469 18.0696 3.14773 18.5566 2.62599 18.5044C2.10425 18.4435 2.0086 18.0262 1.79991 17.7566C1.59121 17.487 1.0173 17.6435 0.904254 17.8696C0.791211 18.0957 0.71295 18.2349 0.478167 18.3392C0.243385 18.4349 -0.00878906 19.4001 -0.00878906 19.4001C0.460776 18.8783 0.808602 18.9218 0.799907 19.1653C0.799907 19.4088 1.13904 19.9653 1.85208 19.9914C2.57382 20.0175 3.0173 20.5566 2.53904 21.0001C2.06078 21.4435 1.24338 21.0175 0.886863 21.1305C0.530341 21.2435 0.982515 22.0175 0.817298 22.487C0.65208 22.9653 1.02599 23.8001 1.02599 23.8001C0.825993 23.2262 1.32165 22.8175 1.32165 22.8175C1.32165 22.8175 1.76512 23.3044 2.39991 22.8957C3.03469 22.487 3.77382 22.4349 4.53034 22.4522C5.28686 22.4696 5.34773 23.4522 5.6086 23.9392C5.86947 24.4262 6.47817 24.0175 6.83469 24.1827C7.19121 24.3479 7.37382 24.8349 7.37382 24.8349C7.93034 24.2175 7.27817 23.8001 7.27817 23.8001C7.27817 23.8001 7.52165 23.8175 7.42599 23.374C7.33034 22.9305 6.94773 22.7827 6.70425 22.6522C6.46078 22.5218 6.39121 22.1653 6.6086 22.2088C6.8173 22.2609 7.6086 22.1305 7.6086 22.1305C7.51295 22.4783 8.19991 23.174 8.19991 23.174C8.16512 22.8783 8.93904 22.0435 8.93904 22.0435C8.8086 22.3914 9.53034 24.2349 9.31295 23.4175C9.31295 23.3914 9.30425 23.3653 9.29556 23.3392C9.14773 22.574 9.8086 22.2435 9.8086 22.2435C9.84338 22.6696 10.3477 22.9827 10.3477 22.9827C10.2695 22.2609 11.7564 22.2001 12.113 22.3131C12.4695 22.4262 12.9651 21.9044 13.4521 22.3653C13.939 22.8262 13.6173 24.2175 13.6956 24.2262C13.7738 24.2435 14.5477 23.4088 14.5477 23.4088C14.5477 23.4088 14.8782 22.7566 14.7912 23.887C14.7129 25.0175 15.0347 25.3131 15.0347 25.3131C14.513 24.4435 15.8347 23.9914 15.8347 23.9914C16.1477 24.4696 15.6521 24.7914 15.7043 25.2696C15.7564 25.7479 16.4086 25.8783 16.4086 25.8783C16.3303 25.0609 17.0608 24.8001 17.0608 24.8001C17.1912 25.6175 19.2869 25.9914 19.2869 25.9914C19.2869 25.9914 18.9303 25.287 18.7477 24.8435C18.5651 24.4001 21.1564 25.0522 21.1564 25.0522C21.1564 25.0522 23.2956 24.7044 22.9738 25.1827C22.6434 25.6609 20.4347 26.5914 19.5043 27.0001C18.5738 27.4088 17.5216 30.0435 16.9564 30.8783C16.3912 31.7131 15.7043 32.0349 15.6434 32.2175C15.5825 32.4001 17.1738 32.487 16.7999 32.9305C16.4173 33.374 15.2521 33.6262 15.2521 33.6262C15.2521 33.6262 16.4521 33.5653 16.4521 33.9827C16.4521 34.4001 14.4608 35.4783 13.8869 35.6783C13.313 35.8783 11.6782 35.4088 11.3825 35.2349C11.0869 35.0609 9.88686 35.2435 9.64338 35.4783C9.39991 35.7131 8.88686 35.8435 8.56512 35.9914C8.24339 36.1392 8.08686 36.774 8.08686 36.774C8.08686 36.774 8.65208 36.5044 8.94773 36.5305C9.24338 36.5566 9.24338 36.7044 9.33904 37.1653C9.43469 37.6349 8.92165 37.6783 8.63469 38.0522C8.34773 38.4175 8.63469 38.6435 8.63469 38.6435C8.63469 38.6435 8.59991 38.4957 9.19121 38.2957C9.78251 38.0957 10.7825 38.5653 10.5651 38.7827C10.3477 39.0001 10.2173 40.2088 10.2173 40.2088C10.2173 40.2088 10.6347 39.1566 11.0782 39.4957C11.5216 39.8435 13.2347 39.1305 13.626 38.8609C14.0173 38.5914 14.6782 38.7392 15.0782 39.0088C15.4695 39.2783 16.1825 39.5479 16.5477 39.6001C16.913 39.6522 17.139 40.6088 17.139 40.6088C17.6086 39.8522 17.2086 39.2088 17.0173 38.7479C16.8173 38.2783 15.4782 37.8522 15.4782 37.8522C15.4782 37.8522 17.0782 36.8349 18.8521 36.8349C20.626 36.8349 21.2434 36.5044 21.7477 36.2783C22.2521 36.0522 21.7477 34.9392 21.7477 34.9392C21.7477 34.9392 22.026 35.3479 22.5477 35.7218C23.0695 36.0957 23.626 36.0175 23.626 36.0175C23.626 36.0175 22.7129 35.2175 22.6086 34.8522C22.5129 34.4957 22.7912 33.2349 22.9999 33.8088C23.2086 34.3827 23.9825 34.6435 23.9825 34.6435C23.9825 34.6435 23.6086 34.2696 23.7043 33.9044C23.7999 33.5479 23.1129 32.4957 23.2956 32.2349C23.4782 31.974 24.5912 33.4957 24.5912 33.4957C24.7738 32.9218 24.0521 31.9131 24.0347 31.5827C24.0173 31.2522 24.539 31.3566 24.539 31.3566C24.339 31.2088 23.8521 30.0175 24.226 29.8522C24.5999 29.687 25.0434 30.7044 25.0434 30.7044C25.0434 30.7044 24.9912 29.6088 24.7651 29.0696C24.539 28.5305 24.9303 28.3131 25.2521 27.9044C25.5825 27.4957 26.2521 27.4175 26.313 28.2522C26.3825 29.087 25.6434 30.774 25.5303 31.3914C25.4173 32.0088 25.9564 32.6348 25.5825 33.1914C25.2086 33.7479 25.026 35.4175 25.1043 34.9566C25.1825 34.4957 25.8608 33.9914 26.1216 33.9131C26.3825 33.8349 26.2521 34.5218 26.2521 35.0783C26.2521 35.6349 26.7303 36.0957 26.7303 36.0957C26.9303 35.9653 26.6782 35.1479 26.6782 35.1479C26.6782 35.1479 26.9564 34.9218 27.3303 35.2957C27.7043 35.6696 27.4434 36.5566 27.4434 36.5566L28.2956 36.2088C28.4782 36.5653 29.1129 36.6957 29.1129 36.6957C28.7825 36.3653 28.8347 35.1131 28.8347 35.1131C29.5043 35.1131 30.0086 36.4262 30.0086 36.4262C30.3999 35.6696 29.8434 34.8088 29.8434 34.8088C32.0521 35.1044 31.0695 37.1653 30.0869 37.574C29.1042 37.9827 29.2347 37.5218 28.7651 37.4436C28.2869 37.3653 27.5999 37.6088 27.0173 37.6435C26.426 37.6783 26.2521 38.1827 25.939 38.4262C25.626 38.6696 26.1043 39.0957 25.5129 39.2609C24.9216 39.4262 25.026 40.4522 25.026 40.4522C25.026 40.4522 25.6956 39.9653 26.0086 39.8175C26.3216 39.6696 26.3216 40.3218 26.1216 40.687C25.9216 41.0522 26.2173 41.7653 26.2173 41.7653C26.2173 41.7653 26.426 41.0262 26.6782 40.8696C26.9216 40.7044 27.7564 40.887 27.5651 41.2783C27.3651 41.6696 27.6782 42.2435 27.6782 42.2435C27.6782 42.2435 27.826 41.6349 27.9216 41.4783C28.0173 41.3131 28.426 41.1827 28.8695 41.1653C29.3129 41.1479 29.2956 40.4088 31.1477 40.0175C32.9999 39.6262 32.8956 38.3653 33.026 38.7566C33.1564 39.1479 33.3738 39.5392 33.4869 39.5218C33.5999 39.5044 33.7825 39.1305 34.1738 38.9044C34.5651 38.6783 34.5651 37.7305 34.5477 37.0696C34.5303 36.4175 35.7303 34.8175 35.8347 34.2088C35.9303 33.5914 35.739 33.2522 35.5651 32.8349C35.3912 32.4175 35.1738 31.8783 34.8086 31.6435C34.4434 31.4088 32.6695 31.6435 32.5912 31.6435C32.5129 31.6435 32.426 31.2522 32.739 31.0349C33.0521 30.8262 33.8521 31.0349 33.8521 31.0349C33.739 30.774 32.1825 29.4957 32.1825 29.4957C32.7564 29.3131 34.0782 29.4957 34.0782 29.4957C33.8695 28.974 32.0782 28.4522 32.2173 28.1392C32.3477 27.8262 33.8869 28.1392 33.8869 28.1392C33.7043 27.8609 32.3303 27.0783 32.626 26.8435C32.9216 26.6175 36.226 27.887 36.7825 27.5653C37.339 27.2349 38.6434 27.5653 38.6434 27.5653C38.6086 27.3044 37.9216 27.0435 37.9216 27.0435C38.0173 26.687 39.626 26.5218 39.626 26.5218C39.626 26.5218 38.6434 25.0783 39.2695 25.0262L39.2782 25.0001ZM29.9651 16.4696C29.3651 15.5044 29.7738 14.8783 30.2782 14.487C30.8956 15.2696 32.5825 17.4175 33.3216 18.6522C32.6347 18.487 30.8695 17.9131 29.9738 16.4696H29.9651Z" fill="url(#paint0_linear_31_4472)"/>
</g>
<defs>
<linearGradient id="paint0_linear_31_4472" x1="19.9956" y1="-0.000244141" x2="19.9956" y2="42.2435" gradientUnits="userSpaceOnUse">
<stop stop-color="#008271"/>
<stop offset="1" stop-color="#00B39B"/>
</linearGradient>
<clipPath id="clip0_31_4472">
<rect width="40" height="42.2261" fill="white"/>
</clipPath>
</defs>
</svg>
