<svg width="78" height="91" viewBox="0 0 78 91" fill="none" xmlns="http://www.w3.org/2000/svg">
<path d="M23.693 84.6128V82.2478C23.693 82.2478 18.9111 83.1759 15.5802 83.1759C12.2493 83.1759 4.78666 81.2961 4.78666 76.043C4.78666 70.79 11.7264 69.3907 14.7039 69.3907C17.6814 69.3907 23.4527 70.5308 23.4527 70.5308V68.1658C23.4527 68.1658 19.3963 67.2895 14.9677 67.2895C10.5391 67.2895 0 68.783 0 76.3964C0 84.0098 10.5061 85.2394 14.5296 85.2394C18.553 85.2394 23.6883 84.6176 23.6883 84.6176" fill="white"/>
<path d="M37.379 67.8172L25.7422 84.872H29.8033L32.6536 80.5988H45.6096L51.9133 90.502H56.813L42.0196 67.8172H37.3837H37.379ZM39.1269 70.6863L44.2198 78.5777H34.0387L39.1316 70.6863H39.1269Z" fill="white"/>
<path d="M72.9777 76.354H67.442V78.4128H72.9777V82.9121C71.7104 83.0629 70.3488 83.1806 69.171 83.1806C65.8448 83.1806 58.3775 81.3008 58.3775 76.0478C58.3775 70.7947 65.3172 69.3954 68.2947 69.3954C71.2722 69.3954 77.0435 70.5356 77.0435 70.5356V68.1705C77.0435 68.1705 72.9872 67.2942 68.5585 67.2942C64.13 67.2942 53.5908 68.783 53.5908 76.3964C53.5908 84.0098 64.097 85.2395 68.1204 85.2395C72.1438 85.2395 77.2791 84.6176 77.2791 84.6176V76.3587H72.9777V76.354Z" fill="white"/>
<path d="M24.2871 19.4041V42.4469H28.1786V23.3898L24.2871 19.4041Z" fill="white"/>
<path d="M27.7207 17.35L31.5227 21.2415H49.1146V60.7126H53.0061V17.35H27.7207Z" fill="white"/>
<rect x="41.4072" y="40.0253" width="4.94213" height="2.48755" fill="white"/>
<path d="M0.0136719 0.248047V60.7126H3.90519V4.13956H73.3871V60.7126H77.2786V0.248047H0.0136719Z" fill="white"/>
</svg>
