<svg width="762" height="437" viewBox="0 0 762 437" fill="none" xmlns="http://www.w3.org/2000/svg">
<path d="M189.047 271.393L190.908 272.386L195.377 269.283L197.487 272.138L200.962 269.655L201.955 271.641L204.065 271.393L203.197 272.634L207.789 273.627L209.775 270.648L212.63 271.765L213.375 269.531L215.112 270.524L216.974 266.925L216.354 264.939L217.967 265.311L219.705 263.325L223.553 263.821L223.428 268.662L226.656 268.786L227.276 267.545L229.386 268.91L228.89 267.049L232.117 268.538L237.33 267.173L238.82 268.166L240.806 262.828L246.143 262.208L248.874 265.932L249.618 265.063L252.845 266.925L252.597 269.035L253.59 268.042L256.445 269.159L258.803 266.304L261.782 267.421L260.913 263.697L263.272 266.552L265.134 265.311L267.492 268.414L268.857 265.932L278.166 268.414L281.394 266.18L280.649 270.648L286.483 270.4L287.848 273.131L288.22 270.4L291.82 267.049L297.778 265.311L296.164 262.084L297.033 256.995L298.895 257.367L298.522 255.629L300.757 254.885L301.253 252.899L302.618 255.754H303.487L306.466 256.25L310.066 260.842L311.183 258.608L313.541 258.857L315.155 264.566L318.134 266.18L319.251 265.807L319.871 265.063L320.989 269.531H316.892L316.272 271.145L319.995 276.606L318.382 278.095L319.251 281.199L316.396 286.163L318.01 286.784L315.031 295.1L320.12 298.7L316.892 302.548L325.333 312.477L326.698 312.726L331.042 308.754L334.642 312.974L339.359 313.346L338.986 316.822L336.131 316.077L338.738 318.187L341.469 317.07L343.331 321.538H344.448L346.309 322.407L349.164 318.932L356.487 322.035L355.991 324.145L357.605 322.407L366.045 322.159L367.038 326.131L365.548 330.723L375.354 339.04L377.216 336.433L380.195 338.791H384.167L385.78 336.805L387.89 337.798L388.883 336.061L391.49 337.178L392.11 339.288L390.249 339.412L394.345 341.274L393.352 342.267L395.462 344.253L394.221 344.749L394.965 346.363L390.124 346.114L390.249 348.721L388.635 349.217L389.504 351.824L387.021 352.817L388.014 354.803L382.801 359.644L383.546 361.009L385.16 359.52L386.897 360.264V363.367L393.103 365.105L392.359 366.843L393.724 368.084L391.614 369.201L390.745 371.559L391.986 371.684L389.752 372.304L388.635 374.911L385.656 374.042L384.167 370.07L380.443 367.463L379.078 368.58L375.602 367.463L369.024 362.25L361.204 362.499L359.094 360.016L357.108 367.091L353.012 365.974L349.04 368.829L345.813 368.953L346.806 365.726L344.696 362.499L345.316 360.388L335.387 359.271L334.642 356.541L327.443 356.665L327.567 360.637L325.209 364.484L326.946 375.531L326.077 380.496L324.588 380.744L326.077 385.958H324.712L322.602 393.529L325.581 396.756L325.084 398.494L322.726 400.232L315.155 398.246L314.286 396.508L306.342 396.756L306.218 404.452L297.157 412.396L295.543 418.602L296.536 426.918L294.302 430.145L290.206 430.269L288.344 425.553L285.614 426.173L284.124 422.45L278.539 426.546L276.677 424.808L271.96 424.436L268.236 419.222L265.258 420.091L266.623 423.194L263.768 429.4L258.927 428.656L259.176 432.255L255.7 431.883L253.094 435.731L251.976 433.745L246.019 430.766L242.667 431.386L236.958 428.78L230.255 428.035L228.517 429.525L226.283 429.028L226.407 427.787L223.056 428.532L223.18 426.546L220.201 425.429L220.822 422.822L218.836 423.194L216.726 421.084L218.339 418.726H221.442L222.187 415.126L219.332 414.754L215.857 409.417L210.644 408.548L201.459 399.363L194.508 398.246L194.756 394.274L192.274 388.813L189.047 387.82L186.192 379.131L183.709 380.496L178.744 380.124L173.283 370.194L174.028 368.457L171.67 370.318L168.566 364.733L165.215 365.229L163.602 362.126L164.47 356.417L167.573 351.079L169.435 352.072L171.173 350.211L170.552 344.625L168.566 341.77L170.552 341.15L169.559 338.047L170.801 335.564L169.559 334.695L174.276 336.433L177.379 332.461L181.351 331.84L180.234 331.468L180.979 327.744L184.082 326.379L181.103 322.159V321.414L181.848 319.056L183.089 319.428L182.592 317.939L184.826 318.187L185.199 315.705H182.716L181.972 311.981L184.951 312.229L185.819 309.747L184.082 308.63L184.33 306.52L189.915 304.161L189.543 301.306L191.901 297.335L188.302 291.377L188.798 287.405L191.405 285.295L188.922 282.192L189.419 276.73L187.061 276.358L187.433 274.993V274.372L189.047 271.393Z" fill="#E5E7EB" stroke="white" stroke-linecap="round" stroke-linejoin="round"/>
<path d="M624.715 384.592L619.253 387.075L618.384 389.433L613.419 391.047L609.944 391.295L602.869 386.082L596.539 391.419L592.939 391.543L588.098 386.33L586.361 386.826L583.258 383.847L573.949 380.993L569.356 386.082L564.391 388.564L561.909 396.136L556.944 399.611L551.979 408.796L553.096 411.278L548.628 415.747L549.248 419.346L545.4 424.684L542.918 423.567L543.911 420.215L541.056 407.431L538.574 406.438L537.208 408.424L533.485 407.555L529.761 409.417L524.92 407.679L523.679 404.948L521.197 403.955L516.356 405.569L514.37 396.632L506.55 396.508L500.592 391.047L498.234 393.529L492.649 392.288L490.414 393.405L488.801 399.115L482.595 405.321L480.361 405.569L478.25 402.342L477.133 404.948L470.927 403.211L451.44 402.59L439.152 396.88L434.311 392.412L435.056 389.309L433.318 388.564L432.201 389.929L430.588 386.578L427.733 387.323L427.609 385.958L428.974 386.578L428.105 384.965L426.74 386.082L425.499 382.979L424.382 384.22L421.775 382.979L422.892 381.613L421.527 379.876L414.7 380.372L411.721 384.344L406.88 382.73L404.894 383.599L396.578 376.648H392.234L388.014 374.662L389.131 372.056L391.365 371.435L390.124 371.311L390.993 368.953L393.103 367.836V366.594L396.082 366.098L397.447 368.953L400.178 369.573L401.543 365.229L406.508 364.609L409.114 368.208L412.342 362.498L416.314 361.754L419.044 357.285L425.375 357.534L426.492 352.445L430.091 354.058L431.953 352.445L431.705 350.334L434.932 349.466L435.801 352.445L438.904 354.43L441.759 353.686L443 350.831L448.958 353.686L449.206 352.196L455.784 350.955L453.798 348.845L454.916 347.48L462.859 346.735L464.349 342.142L467.08 341.77L469.314 339.039L469.562 336.805L467.7 335.936L468.445 334.074L465.714 335.316L466.087 332.088L464.597 330.723L465.342 328.985L469.934 327.124V324.517L465.838 322.531L467.576 315.704L471.548 314.835L468.197 311.732L468.321 309.126L470.679 308.009L471.672 303.292L479.243 299.568H480.236L482.595 297.334L480.857 292.866L482.222 287.777L480.609 287.404L480.112 282.812L482.843 277.226L478.871 273.254L482.471 274.372L486.194 269.158L485.201 266.428L482.719 266.552L481.105 264.318L483.215 262.332V259.104L484.953 260.594L486.194 256.746L489.049 256.001L489.422 258.112L494.262 255.877L496.248 257.615H500.22L501.958 250.664L507.543 252.402L509.529 250.54L512.632 252.65L514.246 251.285L518.094 251.905L526.658 256.498L529.761 256.001L528.023 257.367L528.768 260.346L523.183 258.98L522.19 265.683L532.988 267.669L530.506 267.793L529.885 271.02L527.899 271.517L528.892 280.578L531.251 281.571L532.368 284.177L529.265 285.542L528.892 288.273L535.967 293.61L539.567 290.011L541.801 284.55L538.326 276.606L540.808 274.123L544.904 274.992L549.993 286.163L551.607 286.784L551.731 291.376L556.323 292.742L557.44 289.639L558.185 291.749L554.834 294.355L555.082 296.713L567.122 303.292L569.356 311.856L566.005 316.945L567.991 319.428L566.874 322.159L570.101 326.255L567.867 328.861L572.211 329.109L573.576 327.372L574.197 328.985L572.459 335.191L568.487 336.06L567.494 341.149L564.391 341.273L564.019 345.618L567.867 346.238L575.686 343.135L577.672 347.852L576.555 353.437L579.783 352.32L579.907 353.686L581.644 353.189L582.637 356.54L589.34 356.416L592.071 358.03L591.326 362.747L593.932 363.367L595.918 362.002L600.263 367.463L603.986 365.353L605.848 366.346L607.586 364.484L608.827 367.091L613.42 368.208L612.303 372.428L619.253 374.538L624.715 384.592Z" fill="#E5E7EB" stroke="white" stroke-linecap="round" stroke-linejoin="round"/>
<path d="M90.9886 111.648L97.3188 116.24L100.298 118.723L105.387 117.978L108.366 120.088L110.227 118.598L112.089 120.46L114.075 120.088V124.184L116.061 126.294L118.171 124.06L123.757 125.798L126.612 123.812L129.715 128.28L128.598 131.259H128.349L129.342 134.983L127.356 138.954L129.466 139.451L129.715 143.547L128.101 144.54L131.949 147.271L129.466 150.622L132.569 150.994L134.183 157.573H135.548L135.176 159.559H133.19L135.052 163.034L129.963 162.289L129.839 162.414L129.094 163.655L130.832 165.02L134.059 164.648L137.162 169.613H134.928L134.431 173.46L136.79 173.957L134.804 177.805L129.342 178.301L129.466 187.362L125.991 186.369L124.253 183.763L123.633 185.004L121.398 182.397L115.565 182.521L114.448 180.66L105.635 189.1L104.145 188.479L103.525 190.465L99.0565 191.334V192.699L99.8012 196.671L96.4499 199.898L95.0846 199.402L95.4569 200.519L91.9815 198.161L87.0166 199.898L82.1759 197.168L79.6934 197.044L78.0798 199.03L76.7145 198.161V198.409L74.6044 198.161L73.115 200.023L70.136 199.526L71.129 202.009L66.6606 202.505L67.5295 205.484L63.6817 201.14L60.8269 201.76L57.8479 205.112L53.0072 203.002L52.2624 200.023L43.9463 196.299L47.0493 191.334L46.0563 189.72L42.705 187.362L39.4779 189.224L39.3537 186.121L36.1266 185.624L36.0024 183.763L32.2788 183.514L28.9275 179.667L27.8104 180.908L26.5692 177.308L20.2389 176.315L21.8525 173.212L18.8736 169.613L17.0117 170.109L13.4122 167.503L12.6675 162.289L15.0258 157.697L12.0469 153.229L12.9157 152.484L11.3021 152.36L10.3092 149.877L8.69557 150.374L7.57847 146.029L4.97191 146.526L1 143.671L1.74473 141.437L6.46138 139.079L4.10305 135.355L4.84779 133.741L2.1171 131.755L11.4263 131.011L13.164 133.865L13.2881 139.699L19.3701 139.947L20.6113 143.547L18.253 142.058L17.6324 144.292L23.7144 148.636L21.6043 152.856L23.342 156.332L28.5551 157.076L27.0656 155.587L28.8034 153.725L27.0656 151.118L28.431 149.008L27.9345 145.037L31.1617 144.912L30.4169 141.313L32.527 137.341L35.6301 135.976V130.887L39.2296 130.762L40.4708 127.411L43.5739 125.053L45.9322 126.046L45.684 122.322L48.5388 117.73L66.5365 114.254L70.2602 117.73L73.4873 111.524L80.1899 108.545L81.9276 111.772L82.9206 106.807L90.9886 111.648Z" fill="#E5E7EB" stroke="white" stroke-linecap="round" stroke-linejoin="round"/>
<path d="M390.372 50.8277L395.337 50.9518L403.777 54.6755L406.632 57.9027L414.824 56.9097L418.92 54.6755L423.016 62.8676L424.009 68.9496L426.615 69.5702L434.808 65.9706L438.407 67.2118L439.648 74.1627L441.882 76.7693L437.911 79.7482L442.007 82.3548L444.241 79.7482L445.978 80.3688L447.096 75.2798L451.067 71.0596L458.639 74.1627L460.501 77.2658L463.976 76.0245L465.838 69.4461L470.679 69.9425L471.548 71.3079L478.002 71.0596L486.815 80.7412L489.421 85.7061L484.953 87.4438L485.698 91.0433L483.091 92.1604L484.58 94.6429L480.112 99.3595L478.374 100.353L474.775 98.3665L472.789 103.083H468.693L468.321 105.317L464.597 106.683L465.59 109.538L463.604 108.048L461.618 111.399L463.356 115.247L466.335 114.751L468.072 116.364L467.452 117.854L469.313 118.598L471.175 123.067L474.03 120.336L480.36 120.957L480.484 126.294L482.843 129.769L484.705 131.383L488.801 131.135L494.758 141.065L502.578 148.636V157.449L505.681 160.428L505.309 162.289L503.943 163.034L494.758 158.318L492.772 163.407L487.435 166.51L484.084 166.634L482.222 169.489L478.374 170.854L479.74 173.709L474.775 176.564L477.257 180.163L471.548 178.301L467.824 179.791L467.7 177.557L466.955 179.17L462.114 180.411L459.011 176.439L455.66 176.315L452.557 172.592L448.585 171.971L447.344 167.503L441.386 167.627V161.917L439.276 161.793V159.807L433.566 159.435L431.084 157.449V158.566L427.732 158.938L427.484 161.669L423.885 161.545L421.775 164.4L418.299 162.91L418.92 159.311L414.948 156.704L411.1 159.062L410.976 162.289L409.362 163.655L407.004 162.91L405.142 165.268L400.55 162.662L400.301 164.027L394.716 162.91L395.336 164.027L393.599 163.903L391.613 160.924L389.875 163.655L388.262 162.538L386.524 163.531V166.758L382.8 167.254V167.999L378.828 170.357L377.587 168.744L377.959 165.517L374.608 162.786L373.119 163.779L370.884 161.917L367.037 161.793L369.891 160.055L367.905 158.069L372.374 153.104L371.753 149.257L369.519 147.519L369.147 144.044L370.884 142.678L370.14 137.465L367.161 134.734L362.196 137.962L357.603 135.727L354.5 137.093L351.149 135.479L352.266 131.383L348.418 129.769L349.163 127.783L342.709 126.791L341.716 124.68L342.833 123.563L339.481 121.081L341.095 118.971L343.826 119.219L343.205 116.488L345.563 115.62L345.315 110.406L342.584 108.172L344.074 104.076L340.599 99.1113L344.074 95.6359L352.887 100.601L354.997 100.104L354.5 98.4907L357.727 95.1394L362.941 97.7459L365.671 97.4977L369.395 100.601L370.636 98.3665L372.001 103.331L377.587 101.842L378.704 99.9801L376.966 96.1324L381.559 94.1464L381.435 91.7881L383.545 93.1534L383.297 95.76L383.917 94.5188L388.137 97.6218L391.116 95.3876L394.592 98.2424L394.095 96.3806L398.936 96.0082L396.454 91.1674L394.343 90.0504L395.585 89.5539L393.723 88.1885L394.592 86.8232L392.109 85.582L395.585 79.7482L391.489 75.7763L393.35 73.0456L390.62 62.4952L392.482 58.3992L388.51 54.4273L388.013 50.7036L390.372 50.8277Z" fill="#E5E7EB" stroke="white" stroke-linecap="round" stroke-linejoin="round"/>
<path d="M329.801 6.88843L332.035 8.9985H333.897L334.517 7.13667L339.482 9.24675V13.0945L343.703 12.7222V9.37087L346.681 7.75728L346.93 13.7151L348.916 14.8322L354.625 11.6051L354.377 13.9634L358.349 14.9564V18.1835L360.335 19.5489L357.604 23.3967L358.597 30.844L362.197 35.933L367.286 37.7948L368.775 40.5255L369.396 50.5794L371.878 50.9518L376.595 45.2422L387.394 50.2071L387.89 53.9307L391.862 57.9026L390 61.9987L392.731 72.5491L390.869 75.2797L394.965 79.2517L391.49 85.0854L393.972 86.3266L393.103 87.692L394.965 89.0573L393.724 89.5538L395.834 90.6709L398.316 95.5117L393.476 95.884L393.972 97.7459L390.497 94.8911L387.518 97.1253L383.298 94.0222L382.677 95.2634L382.925 92.6569L380.815 91.2915L380.939 93.6498L376.347 95.6358L378.084 99.4836L376.967 101.345L371.382 102.835L370.016 97.87L368.775 100.104L365.052 97.0011L362.321 97.2494L357.108 94.6428L353.881 97.9941L354.377 99.6077L352.267 100.104L343.454 95.1393L338.489 93.4016L337.869 89.5538L334.517 86.699L331.663 87.8161L327.815 80.8653L324.712 81.61L323.843 83.4718L319.002 78.7552L317.14 79.1275L318.009 80.8652L315.899 81.7341L316.644 84.2165L310.065 87.1955L310.438 89.6779L308.204 93.5257L306.218 95.0152L304.852 94.0222L303.487 97.7459L296.66 96.2564L295.791 99.7318L292.812 100.973L292.688 102.959L288.716 102.214L287.723 103.331L286.234 101.966L283.876 104.448L281.393 104.2L280.028 97.7459L276.677 100.352L272.581 97.9941L271.463 100.973L269.477 98.7389L268.112 95.0152L264.761 94.5187L260.789 84.2166L257.81 82.1065L255.576 77.1416L255.824 72.1767L253.59 71.9285L254.335 68.8254L257.686 66.0947L257.562 61.0057L259.299 60.3851L260.292 60.0127L261.534 57.6544L261.782 58.8956L263.395 58.275L261.906 57.0338L263.023 52.9378L266.374 50.4553L265.257 49.4623L266.374 45.8628L264.885 44.8698L268.484 44.001L273.946 47.4764L277.173 47.2281L279.035 40.1532L282.883 39.5326L284.744 36.4295L292.564 39.9049L294.674 39.4084L295.915 42.6356L298.77 41.5185L301.625 43.2562L304.976 42.7597L308.7 33.6988L310.81 34.3194L313.168 32.83L316.023 34.6918L316.396 33.2023L322.974 35.6848L327.815 34.8159L326.946 30.3475L328.311 27.9892L326.449 24.8861L329.18 22.0313L330.049 17.0665L328.436 13.8393L326.325 15.2046L324.091 12.9704L325.953 9.37087L329.801 6.88843Z" fill="#E5E7EB" stroke="white" stroke-linecap="round" stroke-linejoin="round"/>
<path d="M634.769 134.486L636.382 134.858L633.279 142.182L637.748 145.905L637.003 151.118L632.535 151.243L631.169 154.966L619.502 157.573L618.385 159.435L624.094 165.02L624.839 167.875L627.818 169.24L628.563 167.006H630.176L633.9 170.357L638.492 178.922L639.237 183.887L644.947 185.376L644.823 188.231L649.663 191.955L655.373 190.962L659.097 186.245H662.324L664.806 183.887L665.179 185.252L669.399 186.245L669.275 180.784L667.04 180.287L665.427 181.777L664.806 180.287L664.93 177.681L668.158 175.446L674.364 179.294L673.991 181.156L675.853 182.894L674.736 184.631L677.219 188.107L679.204 187.486L681.563 190.217L683.549 188.852L683.052 187.362L687.396 187.486L688.265 192.079L695.34 193.32L695.837 198.409L700.057 201.884L701.298 199.154L702.415 200.023L703.781 198.409L701.671 195.927L705.643 198.037L712.469 197.788L712.842 199.526L719.172 203.746L724.137 204.243L725.75 203.002L725.006 200.023L728.729 200.767L729.474 203.622L727.984 207.966L732.453 211.194L729.97 212.807L728.481 217.027L735.059 231.053L734.687 235.273L739.528 238.625L744.12 238.376L745.113 242.1L747.72 243.341L752.312 241.728L755.415 243.714L754.919 247.561L757.153 256.871L758.643 257.243V263.077L761.001 265.063L759.015 270.152L752.685 272.51L749.582 275.489L741.017 272.386L734.315 274.372L732.329 274.124L731.708 272.013L728.233 272.386L724.385 275.241L725.626 279.461L719.544 284.798L717.806 289.515L713.586 292.494L709.863 291.749L705.394 290.135L705.518 285.543L698.816 279.957L697.823 275.489L694.471 275.116L692.61 276.73L686.9 275.613L682.804 270.896L679.577 272.262L678.46 270.276L663.937 273.131L661.207 267.297L654.752 267.173L653.511 262.704L651.029 262.58L648.919 266.056L647.926 264.939L646.56 262.828L648.919 259.849L643.457 252.775L639.361 251.037L638.865 247.561L635.638 243.341L633.031 245.203L629.68 243.217L628.563 238.376L630.176 233.163H629.928L629.183 234.28L625.211 231.053H624.342L623.101 230.184L618.881 233.411L612.054 228.695L610.317 232.294L607.462 231.55L606.221 229.067L600.139 229.564L593.684 220.875L592.071 219.758L589.961 220.875H589.34L588.223 222.24L587.975 220.875L580.031 217.4L576.059 218.765L577.052 211.69L572.708 214.173L568.363 208.339L568.612 206.477H569.232L571.59 202.753L570.101 201.016L572.459 199.03H572.956L574.321 194.561L569.232 190.217L571.094 189.1V184.88L578.293 176.315L576.803 169.116L580.031 165.889L579.038 162.165L583.879 156.952H585.989L586.733 154.346L590.085 154.842L594.429 148.264L598.773 150.498L600.263 142.678L602.993 142.182L603.242 139.947L607.462 139.079L613.171 140.072L618.26 138.458L620.867 140.692L629.059 134.734V130.018L632.41 131.259L634.769 134.486Z" fill="#E5E7EB" stroke="white" stroke-linecap="round" stroke-linejoin="round"/>
<path d="M542.67 109.289L549.124 113.882L551.73 112.268L557.812 115.868L564.267 116.116L564.391 118.102L567.991 120.336L574.817 119.467L574.445 123.191L579.782 128.776L584.747 131.383L591.201 129.645L589.96 132.252L591.698 133.121L590.208 137.465L591.325 140.816L592.815 140.692L593.063 137.837L595.794 137.713L599.269 138.706L600.262 142.678L598.773 150.498L594.428 148.264L590.084 154.842L586.733 154.346L585.988 156.952H583.878L579.037 162.165L580.03 165.889L576.803 169.116L578.293 176.315L571.094 184.88V189.1L569.232 190.217L574.321 194.561L572.955 199.03H572.459L570.101 201.016L571.59 202.753L569.232 206.477H568.611L568.363 208.339L572.707 214.173L577.051 211.69L576.058 218.765L580.03 217.4L587.974 220.875L588.222 222.24L589.34 220.875H589.96L592.07 219.758L593.684 220.875L600.138 229.564L606.22 229.067L607.461 231.55L610.316 232.294L612.054 228.695L618.88 233.411L623.101 230.184L624.342 231.053H625.211L629.183 234.28L629.927 233.163H630.176L628.562 238.376L629.679 243.217L633.031 245.203L635.637 243.341L638.864 247.561L639.361 251.037L643.457 252.775L648.918 259.85L646.56 262.828L647.925 264.939L648.918 266.056L651.028 262.58L653.511 262.704L654.752 267.173L653.138 271.889L646.684 269.903L646.312 273.131L640.478 275.861L641.843 278.84L639.361 280.826L639.237 283.309L638.74 284.426H632.906L629.803 280.081L626.824 281.198L626.7 284.177L624.963 282.067L622.108 282.44L625.211 288.273L622.852 291.004L618.508 291.376L617.391 289.639L611.433 291.501L608.703 290.632L610.068 293.735L605.351 298.576L602.497 294.48L600.386 295.1L596.042 292.99L594.18 294.355L595.422 290.135L593.56 288.522L589.588 293.859L592.07 300.686L588.222 302.796L585.119 307.885L582.637 309.126L577.796 308.381L575.934 309.995L573.824 308.629L571.963 313.594L569.852 312.477L567.618 303.913L555.578 297.334L555.33 294.976L558.681 292.369L557.937 290.259L556.82 293.362L552.227 291.997L552.103 287.405L550.489 286.784L545.4 275.613L541.304 274.744L538.822 277.227L542.297 285.17L540.063 290.632L536.464 294.231L529.389 288.894L529.761 286.163L532.864 284.798L531.747 282.191L529.389 281.198L528.396 272.138L530.257 271.641L530.878 268.414L533.36 268.29L522.562 266.304L523.555 259.601L529.14 260.967L528.396 257.988L530.133 256.498L530.506 252.526L531.871 252.402L529.761 249.796L530.009 246.817L534.85 242.472L534.974 236.39L533.236 234.032L528.396 234.529L530.878 230.929L528.644 229.191L530.009 227.578L525.044 222.489V218.765L522.314 216.903L522.562 211.442L525.913 208.835L519.707 187.362L523.679 186.99L523.803 188.107L524.3 187.238L525.913 184.135L530.878 181.528L531.126 176.812L529.389 175.074L532.119 172.219L530.133 168.247L532.616 166.882L537.084 156.207L536.96 152.484L539.07 152.236L540.932 148.264L547.262 148.388L549.496 144.54L552.103 149.505L555.33 147.146L552.351 142.554L554.337 138.83L552.475 134.61L546.145 132.252L541.925 119.095L536.215 115.868L538.698 109.662L542.67 109.289Z" fill="#E5E7EB" stroke="white" stroke-linecap="round" stroke-linejoin="round"/>
<path d="M536.713 152.484H536.837L536.961 156.207L532.492 166.882L530.01 168.247L531.996 172.219L529.265 175.074L531.003 176.812L530.755 181.528L525.79 184.135L524.176 187.238L523.68 188.107L523.556 186.99L519.584 187.362L525.79 208.835L522.439 211.442L522.19 216.903L524.921 218.765V222.489L529.886 227.578L528.521 229.191L530.755 230.929L528.272 234.529L533.113 234.032L534.851 236.39L534.727 242.472L529.886 246.817L529.638 249.796L531.748 252.402L530.382 252.526L530.01 256.498L526.907 256.995L518.342 252.402L514.495 251.657L512.881 253.023L509.778 250.913L507.792 252.775L502.207 251.037L500.469 257.988H496.497L494.635 256.25L489.794 258.484L489.422 256.374L486.567 257.119L485.326 260.967L483.588 259.477L478.872 254.14L473.783 252.154L472.045 252.899L470.059 251.285L470.431 249.423L461.619 242.597L456.53 242.721L455.661 240.735L451.441 241.852L448.71 237.259L446.352 236.266H445.607L441.759 235.894L439.897 232.294L436.422 236.266V237.135L436.67 238.376L434.684 238.873L435.553 240.611L430.836 241.604L422.768 235.894L424.506 231.301L422.893 232.543L418.052 228.819L414.452 229.191L415.197 224.971L410.232 225.219L407.005 220.999L404.771 221.496L404.523 219.634L402.164 218.889L400.054 220.503L399.061 218.765L393.972 220.255L391.862 216.531L383.173 210.945V204.615L385.78 203.87L387.642 199.526L385.284 197.044L387.021 193.568L379.45 189.596L380.691 186.617L378.953 187.362V185.128L375.354 185.5L375.726 184.135L372.251 183.763L368.775 180.287L370.017 178.674L372.623 178.798L370.141 176.564L373.864 176.067L372.747 171.847L375.478 171.723L372.375 170.357L373.244 168.868L376.843 169.861L377.216 168.744L378.457 170.357L382.429 167.999V167.254L386.153 166.758V163.531L387.89 162.538L389.504 163.655L391.242 160.924L393.227 163.903L394.965 164.027L394.345 162.91L399.93 164.027L400.178 162.662L404.771 165.268L406.633 162.91L408.991 163.655L410.605 162.289L410.729 159.062L414.577 156.704L418.548 159.311L417.928 162.91L421.403 164.4L423.513 161.545L427.113 161.669L427.361 158.938L430.712 158.566V157.449L433.195 159.435L438.904 159.807V161.793L441.015 161.917V167.627L446.972 167.503L448.214 171.971L452.186 172.592L455.289 176.315L458.64 176.439L461.743 180.411L466.584 179.17L467.328 177.557L467.453 179.791L471.176 178.301L476.886 180.163L474.403 176.564L479.368 173.709L478.003 170.854L481.851 169.489L483.713 166.634L487.064 166.51L492.401 163.407L494.387 158.318L503.572 163.034L504.937 162.289L510.771 167.751L518.839 170.357L523.432 163.655L527.652 161.917L531.003 153.725L532.12 154.222L534.851 150.994L536.713 152.484Z" fill="#E5E7EB" stroke="white" stroke-linecap="round" stroke-linejoin="round"/>
<path d="M709.739 291.625L705.27 290.011L705.395 285.419L698.692 279.833L697.699 275.365L694.348 274.992L692.486 276.606L686.776 275.489L682.68 270.772L679.453 272.137L678.46 270.276L663.938 273.13L661.207 267.297L654.753 267.173L653.139 271.889L646.685 269.903L646.312 273.13L640.479 275.861L641.844 278.84L639.361 280.826L638.741 284.426H632.907L629.804 280.081L626.825 281.198L626.701 284.177L624.963 282.067L622.233 282.315L625.211 288.149L622.853 290.88L618.509 291.252L617.392 289.515L611.434 291.376L608.703 290.508L610.069 293.611L605.352 298.451L602.497 294.355L600.387 294.976L596.043 292.866L594.181 294.231L595.422 290.011L593.56 288.397L589.588 293.735L592.071 300.561L588.223 302.672L585.12 307.761L582.638 309.002L577.797 308.257L575.935 309.871L573.825 308.505L571.963 313.47L569.853 312.353L566.502 317.442L568.488 319.925L567.37 322.655L570.598 326.751L568.364 329.358L572.708 329.606L574.073 327.868L574.694 329.482L572.956 335.688L568.984 336.557L567.991 341.646L564.888 341.77L564.392 346.114L568.239 346.735L576.059 343.632L578.045 348.349L576.928 353.934L580.155 352.817L580.279 354.182L582.017 353.686L583.01 357.037L589.713 356.913L592.443 358.527L591.698 363.243L594.305 363.864L596.291 362.499L600.635 367.96L604.359 365.85L606.221 366.843L607.958 364.981L609.2 367.587L613.792 368.705L612.675 372.925L619.626 375.035L624.839 384.84L631.045 383.848L639.858 372.925L651.153 372.304L654.38 358.278L656.49 356.292L667.041 356.168L672.13 353.686L675.357 349.962L677.343 344.004L676.722 337.053L679.577 332.461L678.956 327.992L681.687 323.028L680.818 317.814L685.162 313.594V310.988L694.223 309.25L705.518 304.533L709.739 299.941L710.607 294.479L709.739 291.625Z" fill="#E5E7EB" stroke="white" stroke-linecap="round" stroke-linejoin="round"/>
<path d="M136.915 169.861L139.522 169.116L140.639 171.847L142.997 169.24L144.859 173.46L149.079 171.475L151.437 176.191L149.576 176.315L147.962 181.404L151.934 182.149L153.299 179.791L156.526 179.667L157.892 181.528L160.995 179.791L163.353 181.528L159.505 182.273L161.74 184.756L165.215 185.376L167.077 187.983L173.407 187.859H174.028L175.641 186.742L178.124 187.61L181.847 193.32L187.061 193.196L186.564 197.54L191.032 197.292L194.136 199.899L196.494 199.774L195.004 203.002L196.866 210.201H193.887L192.77 216.531L194.136 220.006L191.901 221.868L192.894 225.344L191.032 228.695L193.143 227.95L195.129 229.936L190.66 231.798L188.426 236.018L185.695 233.66L181.103 236.142L178.496 239.742L179.489 243.341L181.723 241.604L184.826 242.721L180.482 243.838L180.234 245.7L183.585 248.554L181.475 249.671L183.337 250.168L182.468 251.409L187.557 252.775L185.695 265.807L186.44 264.69L188.674 265.683L188.922 271.145L187.433 273.875V274.496L187.061 275.861L189.419 276.234L188.922 281.695L191.405 284.798L188.798 286.908L188.302 290.88L191.901 296.838L189.543 300.81L189.915 303.665L184.33 306.023L184.082 308.133L185.819 309.25L184.95 311.733L181.972 311.484L182.716 315.208H185.199L184.826 317.69L182.592 317.442L183.089 318.932L181.847 318.559L181.103 320.918V321.662L184.082 325.883L180.73 327.372L179.986 331.096L181.103 331.468L177.131 332.089L174.028 336.061L169.311 334.323L170.552 335.192L169.311 337.674L170.304 340.777L168.318 341.398L170.304 344.253L170.925 349.838L169.187 351.7L167.325 350.707L164.222 356.044L163.353 361.754L164.967 364.857L160.126 364.609V369.077L158.761 369.325L148.334 361.63L147.217 350.21L135.55 339.164L129.468 339.908L123.138 335.936L122.393 329.854L115.69 324.765L115.939 322.035L112.96 320.421L112.215 317.194L109.981 316.449L109.112 314.215L106.878 314.091L106.381 307.264L103.775 307.016L99.9268 302.175L90.6177 299.196L89.8729 302.92L86.0251 300.313L78.5778 299.941L75.8471 291.625L70.3857 286.536L64.6761 284.798V281.571L62.0696 277.475L63.3108 269.407L62.4419 267.917L60.8283 268.91L57.2288 266.924L53.8775 252.775L50.278 253.023L49.5332 241.231L45.6854 241.107L40.5964 238.252L36.2522 231.55L36.0039 228.447L43.9477 223.978L43.0789 219.758L44.196 215.662L46.8025 215.29V212.062L48.4161 211.566L52.8845 203.498L57.7253 205.608L60.7042 202.257L63.559 201.636L67.4068 205.98L66.538 203.002L71.0063 202.505L70.0134 200.023L72.9923 200.519L74.4818 198.657L76.5918 198.906V198.657L77.9572 199.526L79.5708 197.54L82.0532 197.664L86.894 200.395L91.8589 198.657L95.3343 201.016L94.9619 199.899L96.3273 200.395L99.6786 197.168L98.9338 193.196V191.831L103.402 190.962L104.023 188.976L105.512 189.596L114.325 181.156L115.442 183.018L121.276 182.894L123.51 185.5L124.131 184.259L125.868 186.866L129.344 187.859L129.22 178.798L134.681 178.301L136.667 174.453L134.309 173.957L134.805 170.109L136.915 169.861Z" fill="#E5E7EB" stroke="white" stroke-linecap="round" stroke-linejoin="round"/>
<path d="M274.939 157.449L275.187 157.821L277.421 158.566L278.414 159.931L276.552 161.793L281.765 160.428L282.51 164.648L288.592 166.013L289.461 169.613L294.178 171.226L293.681 174.826L286.979 177.432L287.351 179.915L289.213 179.294L288.716 182.149L290.082 184.135L288.84 186.493L287.599 185.624L286.979 188.479L280.524 184.631L279.407 185.748L277.669 184.756L276.304 186.493L274.442 185.624V185.873L274.318 187.61L270.967 187.486L266.871 192.327L262.526 193.692L260.044 192.823L259.548 197.664L257.934 195.926L252.969 196.547L251.604 194.685L253.714 193.072L251.852 192.575L253.714 189.1L249.742 188.231L249.245 182.273L246.266 182.025L245.522 177.929L243.039 177.06L244.281 175.074L248.252 173.957L243.163 169.861L240.309 169.737L244.156 167.503L247.135 167.627L249.494 164.896L250.859 165.02L250.363 167.378L256.072 167.13L255.327 163.406L256.693 161.545L259.796 162.786L263.519 159.931L268.112 160.676L267.615 159.559V158.69L273.325 157.2L275.063 156.828L274.939 157.573L274.939 157.449Z" fill="#E5E7EB" stroke="white" stroke-linecap="round" stroke-linejoin="round"/>
<path d="M269.478 98.6148L271.464 100.849L272.581 97.87L276.677 100.228L280.028 97.6218L281.393 104.076L283.876 104.324L286.234 101.842L287.724 103.207L288.716 102.09L292.688 102.835L292.812 100.849L295.791 99.6077L296.66 96.1323L303.487 97.6218L304.852 93.8981L305.969 94.8911L307.955 93.4016L310.19 89.5538L309.817 87.0714L316.396 84.0925L315.651 81.61L317.761 80.7412L316.892 79.0035L318.754 78.6311L323.595 83.3477L324.712 81.61L328.063 81.2377L331.911 88.1885L334.766 87.1955L338.117 90.0503L338.738 93.8981L343.703 95.6358L340.227 99.1113L343.703 104.076L342.213 108.172L344.944 110.406L345.192 115.62L342.958 116.488L343.579 119.219L340.848 118.971L339.234 121.081L342.586 123.563L341.468 124.68L342.461 126.791L348.916 127.783L348.171 129.769L352.019 131.383L350.902 135.479L354.253 137.093L357.356 135.727L361.949 137.962L366.914 134.734L369.892 137.465L370.637 142.678L368.9 144.043L369.272 147.519L371.506 149.257L372.127 153.104L367.658 158.069L369.644 160.055L366.789 161.793L370.637 161.917L372.871 163.779L374.361 162.786L377.712 165.517L377.34 168.62L376.967 169.737L373.368 168.744L372.499 170.233L375.602 171.599L372.871 171.723L373.989 175.943L370.265 176.439L372.747 178.674L370.141 178.549L368.9 180.163L372.375 183.638L375.85 184.011L375.478 185.376L379.078 185.004V187.238L380.815 186.493L379.574 189.472L387.145 193.444L385.408 196.92L387.766 199.402L385.904 203.746L383.298 204.491V210.821L379.822 214.917L377.588 213.428L374.733 215.786L374.113 217.896L376.595 220.627L374.733 222.613H374.113L370.389 221.372L368.775 225.344L366.541 226.585L359.59 227.205L357.232 229.812L355.743 229.191L356.239 227.702L354.377 228.695H353.881L352.515 229.44L351.895 233.908L348.047 236.887L347.675 240.735L348.544 244.21L354.005 244.831L355.618 248.306L354.874 251.906L352.64 253.519L349.04 252.278L348.419 254.016L346.93 253.519L345.937 257.739L340.972 254.016L338.986 256.002L334.021 256.871L331.539 255.133L330.422 256.374L328.312 254.388L325.581 254.76L324.464 256.498L326.326 259.229L321.113 259.353L321.733 263.077L320.368 263.201V264.07V264.318L319.747 265.063L318.63 265.435L315.775 263.821L314.162 257.988L311.803 257.739L310.686 259.974L307.087 255.381L304.108 254.885H303.239L301.874 252.03L301.377 254.016L299.143 254.761L299.515 256.498L297.653 256.126L296.785 261.215L298.398 264.442L292.44 266.18L288.717 269.531L288.344 272.262L286.979 269.531L281.145 269.779L281.89 265.311L278.663 267.545L269.354 265.063L267.988 267.545L265.63 264.442L263.768 265.683L261.41 262.828L262.279 266.552L259.3 265.435L256.941 268.29L254.087 267.173L253.094 268.166L253.342 266.056L250.115 264.194L249.37 265.063L246.639 261.339L241.302 261.96L239.316 267.297L237.827 266.304L232.613 267.669L229.386 266.18L229.759 268.042L227.649 266.676L227.152 267.918L223.925 267.793L224.049 262.953L220.201 262.456L218.464 264.442L216.85 264.07L217.471 266.056L215.609 269.655L213.871 268.662L213.126 270.896L210.271 269.779L208.285 272.758L203.693 271.641L204.562 270.4L202.452 270.648L201.459 268.662L197.983 271.145L195.873 268.29L191.405 271.393L189.543 270.4L189.295 264.939L187.061 263.946L186.316 265.063L188.178 252.03L183.089 250.54L183.958 249.299L181.972 248.803L184.082 247.686L180.73 244.831L180.979 242.969L185.199 241.852L182.096 240.735L179.861 242.472L178.868 238.997L181.475 235.398L186.068 232.915L188.798 235.273L191.032 231.053L195.253 229.067L193.267 227.081L191.157 227.826L193.018 224.475L192.025 220.999L194.26 219.138L192.894 215.662L194.011 209.332H196.99L195.128 202.133L196.618 198.906L194.26 199.03L191.157 196.547L186.688 196.796L187.185 192.451L181.972 192.575L178.248 186.866L175.765 185.997L174.152 187.114H173.283L166.953 187.238L165.091 184.632L161.615 184.011L159.381 181.528L163.229 180.784L160.871 179.046L157.768 180.784L156.402 178.922L153.175 179.046L151.81 181.404L147.838 180.66L149.451 175.571L151.313 175.446L148.955 170.73L148.583 169.24L150.817 167.503L155.037 167.999L155.906 163.407L158.14 164.275L157.023 161.669L158.512 160.676L157.892 157.573L159.381 157.697H159.754L164.47 153.104L167.077 154.222L171.421 152.98L172.29 149.877H174.152L178.372 145.781V147.643L187.309 147.519L187.681 145.657L189.667 146.029L194.384 140.568L197.611 144.54L200.342 144.168L201.707 139.451L206.424 138.955L210.52 135.727L210.147 132.997L214.616 133.617L213.499 128.28L216.353 126.046L231.372 128.776L235.592 128.28L235.841 126.294L243.164 129.149L243.784 127.908H244.033L246.143 124.556L248.377 125.549L249.37 124.929L251.728 123.936L256.445 125.177L257.934 117.357L255.7 111.524L257.81 110.406L262.651 112.765L261.41 111.151L263.147 109.662L262.775 107.303L268.36 107.924L266.499 99.6078L268.485 99.1113L267.988 97.3736L269.478 98.6148ZM267.492 159.186L267.864 160.303L263.271 159.559L259.548 162.414L256.445 161.172L255.079 163.034L255.824 166.758L250.115 167.006L250.611 164.648L249.246 164.524L246.887 167.254L243.908 167.13L240.061 169.364L242.915 169.489L248.004 173.585L244.033 174.702L242.791 176.688L245.274 177.556L246.019 181.652L248.997 181.901L249.494 187.859L253.466 188.727L251.604 192.203L253.466 192.699L251.356 194.313L252.721 196.175L257.686 195.554L259.3 197.292L259.796 192.451L262.279 193.32L266.623 191.955L270.719 187.114L274.07 187.238L274.194 185.5V185.252L276.056 186.121L277.421 184.383L279.159 185.376L280.276 184.259L286.731 188.107L287.351 185.252L288.592 186.121L289.834 183.763L288.344 181.528L288.965 179.046L287.103 179.667L286.731 177.184L293.433 174.578L293.93 170.978L289.213 169.364L288.344 165.765L282.262 164.4L281.517 160.179L276.304 161.545L278.166 159.683L277.173 158.318L274.939 157.573L274.567 156.828L274.691 156.083L272.953 156.456L267.243 157.945L267.492 159.186Z" fill="#E5E7EB" stroke="white" stroke-linecap="round" stroke-linejoin="round"/>
<path d="M252.97 4.15778L256.073 3.1648L258.804 6.64022L262.279 7.88145L266.375 4.77839L270.595 7.01259L271.464 2.91656L271.216 7.26083L274.94 8.25381L275.312 10.6121L278.663 9.49503L282.759 14.7082L278.912 25.6309L280.898 26.4998L288.345 23.2726L288.593 27.8651L286.855 29.2305L284.869 36.1813L283.008 39.2844L279.16 39.905L277.298 46.9799L274.071 47.2282L268.609 43.7528L265.01 44.6216L266.499 45.6146L265.382 49.2141L266.499 50.2071L263.148 52.6896L262.031 56.7856L263.52 58.0268L261.907 58.6474L261.659 57.4062L260.417 59.7645L259.424 60.1369L257.687 60.7575L257.811 65.8465L254.46 68.5772L253.715 71.6803L255.949 71.9285L255.701 76.8934L257.935 81.8583L260.914 83.9684L264.886 94.2705L268.237 94.767L269.602 98.4907L268.113 97.7459L268.609 99.4836L266.375 100.228L268.237 108.545L262.652 107.924L263.024 110.282L261.286 111.772L262.527 113.385L257.687 111.027L255.577 112.144L257.811 117.978L256.321 125.798L251.605 124.556L249.246 125.549L248.253 126.17L246.019 125.177L243.909 128.528H243.661L243.04 129.769L235.717 126.915L235.469 128.901L231.249 129.397L216.23 126.666L213.375 128.901L214.492 134.238L210.024 133.617L210.396 136.348L206.3 139.575L201.584 140.072L200.218 144.788L197.487 145.161L194.26 141.189L189.544 146.65L187.558 146.278L187.185 148.14L178.249 148.264V146.402L174.028 150.498H172.167L171.298 153.601L166.953 154.842L164.347 153.725L159.63 158.318H159.258L157.768 158.193L158.389 161.296L156.9 162.289L158.017 164.896L155.782 164.027L154.914 168.62L150.693 168.123L148.459 169.861L148.832 171.35L144.611 173.336L142.75 169.116L140.391 171.723L139.274 168.992L136.668 169.737L133.565 164.772L130.337 165.144L128.6 163.779L129.344 162.538L129.469 162.414L134.558 163.158L132.696 159.683H134.682L135.054 157.697H133.689L132.075 151.118L128.972 150.746L131.454 147.395L127.607 144.664L129.22 143.671L128.972 139.575L126.862 139.079L128.848 135.107L127.855 131.383H128.103L129.22 128.404L126.117 123.936L123.262 125.922L117.677 124.184L115.567 126.418L113.581 124.308V120.212L111.595 120.584L109.733 118.723L107.871 120.212L104.892 118.102L100.3 118.847L97.3209 116.364L96.5762 114.999L100.92 113.758L105.513 108.545L106.754 97.7459L112.712 99.4836L117.925 96.1323L118.67 98.2424L125.124 98.863L130.958 83.2236H134.433L135.799 86.3267L139.398 85.4578L139.647 80.6171L145.48 77.1416L144.984 73.1697L147.094 73.7903L149.7 79.1276L155.534 81.3618L158.885 76.6451L162.113 75.0316L160.871 72.5491L164.223 68.3289L162.361 63.3641L165.96 61.7505L170.925 62.4952L177.876 58.6474L182.717 61.1299L184.951 58.2751L186.441 59.5163L190.537 58.0268L199.349 59.5163L199.97 56.7856L204.066 56.4132L202.825 52.069L204.314 47.7247L208.534 48.2212L210.396 45.1181L214.368 43.008L218.836 45.7387L224.174 44.3734L225.539 41.8909L240.682 35.9331L241.799 31.0923L245.523 29.727L249.743 31.7129L254.832 30.2234L254.956 28.6099L259.176 29.2305L260.293 22.5279L250.612 19.1766L251.356 18.1836L249.743 17.1906L252.598 15.8253L252.225 13.8393L247.633 15.2047L244.902 13.2187L245.026 9.61917L247.26 8.50207L247.757 6.26787L246.392 4.15779L250.984 1.30298L252.97 4.15778Z" fill="#E5E7EB" stroke="white" stroke-linecap="round" stroke-linejoin="round"/>
<path d="M383.298 211.193L391.986 216.779L394.096 220.503L399.185 219.013L400.178 220.751L402.288 219.137L404.647 219.882L404.895 221.744L407.129 221.247L410.356 225.468L415.321 225.219L414.576 229.439L418.176 229.067L423.017 232.791L424.63 231.55L422.893 236.142L430.961 241.852L435.677 240.859L434.808 239.121L436.794 238.624L436.546 237.383V236.514L440.021 232.543L441.883 236.142L445.731 236.514H446.476L448.834 237.507L451.565 242.1L455.785 240.983L456.654 242.969L461.743 242.845L470.555 249.671L470.183 251.533L472.169 253.147L473.907 252.402L478.996 254.388L483.712 259.725L483.837 262.952L481.726 264.938L483.34 267.173L485.822 267.048L486.815 269.779L483.092 274.992L479.492 273.875L483.464 277.847L480.733 283.433L481.23 288.025L482.843 288.398L481.478 293.487L483.216 297.955L480.858 300.189H479.865L472.293 303.913L471.3 308.629L468.942 309.747L468.818 312.353L472.169 315.456L468.197 316.325L466.459 323.152L470.555 325.138V327.744L465.963 329.606L465.218 331.344L466.708 332.709L466.335 335.936L469.066 334.695L468.321 336.557L470.183 337.426L469.935 339.66L467.701 342.391L464.97 342.763L463.48 347.356L455.537 348.1L454.42 349.466L456.406 351.576L449.827 352.817L449.579 354.182L443.621 351.328L442.38 354.182L439.525 354.927L436.422 352.941L435.553 349.962L432.326 350.831L432.574 352.941L430.712 354.555L427.113 352.941L425.996 358.03L419.665 357.782L416.935 362.25L412.963 362.995L409.736 368.705L407.129 365.105L402.164 365.726L400.799 370.07L398.068 369.449L396.703 366.595L393.724 367.091V368.332L392.358 367.091L393.103 365.353L386.897 363.616V360.513L385.159 359.768L383.546 361.257L382.801 359.892L388.014 355.051L387.021 353.065L389.504 352.072L388.635 349.466L390.248 348.969L390.124 346.363L394.965 346.611L394.22 344.997L395.461 344.501L393.351 342.515L394.344 341.522L390.248 339.66L392.11 339.536L391.49 337.426L388.883 336.309L387.89 338.047L385.78 337.054L384.166 339.04H380.194L377.216 336.681L375.354 339.288L365.548 330.972L367.038 326.379L366.045 322.407L357.604 322.655L355.991 324.393L356.487 322.283L349.164 319.18L346.309 322.655L344.447 321.787H343.33L341.468 317.318L338.738 318.435L336.131 316.325L338.986 317.07L339.358 313.594L334.642 313.222L330.918 308.754L326.574 312.725L325.208 312.477L316.768 302.547L319.995 298.7L314.906 295.1L317.885 286.784L316.272 286.163L319.126 281.198L318.258 278.095L319.871 276.606L316.147 271.145L316.768 269.531H320.864L319.747 265.063V264.814V263.945L321.112 263.821L320.492 260.098L325.705 259.974L323.843 257.243L324.96 255.505L327.691 255.133L329.801 257.119L330.918 255.878L333.401 257.615L338.365 256.746L340.351 254.76L345.316 258.484L346.309 254.264L347.799 254.76L348.419 253.023L352.019 254.264L354.253 252.65L354.998 249.051L353.384 245.575L347.923 244.831L347.054 241.355L347.426 237.507L351.274 234.528L351.895 230.06L353.26 229.315H353.757L355.618 228.322L355.122 229.812L356.611 230.432L358.97 227.826L365.921 227.205L368.155 225.964L369.768 221.992L373.492 223.233H374.112L375.974 221.247L373.492 218.517L374.112 216.407L376.967 214.048L379.202 215.538L383.298 211.193Z" fill="#E5E7EB" stroke="white" stroke-linecap="round" stroke-linejoin="round"/>
<g filter="url(#filter0_d_31_4253)">
<path d="M552.651 144.115C544.918 144.115 538.651 150.505 538.651 158.385C538.651 166.267 552.651 192.115 552.651 192.115C552.651 192.115 566.651 166.267 566.651 158.385C566.651 150.505 560.381 144.115 552.651 144.115Z" fill="url(#paint0_linear_31_4253)"/>
<path d="M552.651 189.987C552.301 189.322 551.859 188.478 551.352 187.495C550.043 184.956 548.299 181.49 546.556 177.78C544.812 174.068 543.075 170.127 541.776 166.632C540.46 163.091 539.651 160.154 539.651 158.385C539.651 151.039 545.488 145.115 552.651 145.115C559.811 145.115 565.651 151.04 565.651 158.385C565.651 160.154 564.843 163.091 563.526 166.632C562.228 170.127 560.491 174.068 558.746 177.78C557.003 181.49 555.259 184.956 553.95 187.495C553.443 188.478 553.001 189.322 552.651 189.987Z" stroke="white" stroke-width="2"/>
</g>
<g filter="url(#filter1_d_31_4253)">
<path d="M512.651 245.115C504.918 245.115 498.651 251.505 498.651 259.385C498.651 267.267 512.651 293.115 512.651 293.115C512.651 293.115 526.651 267.267 526.651 259.385C526.651 251.505 520.381 245.115 512.651 245.115Z" fill="url(#paint1_linear_31_4253)"/>
<path d="M512.651 290.987C512.301 290.322 511.859 289.478 511.352 288.495C510.043 285.956 508.299 282.49 506.556 278.78C504.812 275.068 503.075 271.127 501.776 267.632C500.46 264.091 499.651 261.154 499.651 259.385C499.651 252.039 505.488 246.115 512.651 246.115C519.811 246.115 525.651 252.04 525.651 259.385C525.651 261.154 524.843 264.091 523.526 267.632C522.228 271.127 520.491 275.068 518.746 278.78C517.003 282.49 515.259 285.956 513.95 288.495C513.443 289.478 513.001 290.322 512.651 290.987Z" stroke="white" stroke-width="2"/>
</g>
<g filter="url(#filter2_d_31_4253)">
<path d="M598.651 296.115C590.918 296.115 584.651 302.505 584.651 310.385C584.651 318.267 598.651 344.115 598.651 344.115C598.651 344.115 612.651 318.267 612.651 310.385C612.651 302.505 606.381 296.115 598.651 296.115Z" fill="url(#paint2_linear_31_4253)"/>
<path d="M598.651 341.987C598.301 341.322 597.859 340.478 597.352 339.495C596.043 336.956 594.299 333.49 592.556 329.78C590.812 326.068 589.075 322.127 587.776 318.632C586.46 315.091 585.651 312.154 585.651 310.385C585.651 303.039 591.488 297.115 598.651 297.115C605.811 297.115 611.651 303.04 611.651 310.385C611.651 312.154 610.843 315.091 609.526 318.632C608.228 322.127 606.491 326.068 604.746 329.78C603.003 333.49 601.259 336.956 599.95 339.495C599.443 340.478 599.001 341.322 598.651 341.987Z" stroke="white" stroke-width="2"/>
</g>
<g filter="url(#filter3_d_31_4253)">
<path d="M351.651 119.115C343.918 119.115 337.651 125.505 337.651 133.385C337.651 141.267 351.651 167.115 351.651 167.115C351.651 167.115 365.651 141.267 365.651 133.385C365.651 125.505 359.381 119.115 351.651 119.115Z" fill="url(#paint3_linear_31_4253)"/>
<path d="M351.651 164.987C351.301 164.322 350.859 163.478 350.352 162.495C349.043 159.956 347.299 156.49 345.556 152.78C343.812 149.068 342.075 145.127 340.776 141.632C339.46 138.091 338.651 135.154 338.651 133.385C338.651 126.039 344.488 120.115 351.651 120.115C358.811 120.115 364.651 126.04 364.651 133.385C364.651 135.154 363.843 138.091 362.526 141.632C361.228 145.127 359.491 149.068 357.746 152.78C356.003 156.49 354.259 159.956 352.95 162.495C352.443 163.478 352.001 164.322 351.651 164.987Z" stroke="white" stroke-width="2"/>
</g>
<g filter="url(#filter4_d_31_4253)">
<path d="M309.651 310.115C301.918 310.115 295.651 316.505 295.651 324.385C295.651 332.267 309.651 358.115 309.651 358.115C309.651 358.115 323.651 332.267 323.651 324.385C323.651 316.505 317.381 310.115 309.651 310.115Z" fill="url(#paint4_linear_31_4253)"/>
<path d="M309.651 355.987C309.301 355.322 308.859 354.478 308.352 353.495C307.043 350.956 305.299 347.49 303.556 343.78C301.812 340.068 300.075 336.127 298.776 332.632C297.46 329.091 296.651 326.154 296.651 324.385C296.651 317.039 302.488 311.115 309.651 311.115C316.811 311.115 322.651 317.04 322.651 324.385C322.651 326.154 321.843 329.091 320.526 332.632C319.228 336.127 317.491 340.068 315.746 343.78C314.003 347.49 312.259 350.956 310.95 353.495C310.443 354.478 310.001 355.322 309.651 355.987Z" stroke="white" stroke-width="2"/>
</g>
<g filter="url(#filter5_d_31_4253)">
<path d="M228.651 298.115C220.918 298.115 214.651 304.505 214.651 312.385C214.651 320.267 228.651 346.115 228.651 346.115C228.651 346.115 242.651 320.267 242.651 312.385C242.651 304.505 236.381 298.115 228.651 298.115Z" fill="url(#paint5_linear_31_4253)"/>
<path d="M228.651 343.987C228.301 343.322 227.859 342.478 227.352 341.495C226.043 338.956 224.299 335.49 222.556 331.78C220.812 328.068 219.075 324.127 217.776 320.632C216.46 317.091 215.651 314.154 215.651 312.385C215.651 305.039 221.488 299.115 228.651 299.115C235.811 299.115 241.651 305.04 241.651 312.385C241.651 314.154 240.843 317.091 239.526 320.632C238.228 324.127 236.491 328.068 234.746 331.78C233.003 335.49 231.259 338.956 229.95 341.495C229.443 342.478 229.001 343.322 228.651 343.987Z" stroke="white" stroke-width="2"/>
</g>
<g filter="url(#filter6_d_31_4253)">
<path d="M299.651 263.115C291.918 263.115 285.651 269.505 285.651 277.385C285.651 285.267 299.651 311.115 299.651 311.115C299.651 311.115 313.651 285.267 313.651 277.385C313.651 269.505 307.381 263.115 299.651 263.115Z" fill="url(#paint6_linear_31_4253)"/>
<path d="M299.651 308.987C299.301 308.322 298.859 307.478 298.352 306.495C297.043 303.956 295.299 300.49 293.556 296.78C291.812 293.068 290.075 289.127 288.776 285.632C287.46 282.091 286.651 279.154 286.651 277.385C286.651 270.039 292.488 264.115 299.651 264.115C306.811 264.115 312.651 270.04 312.651 277.385C312.651 279.154 311.843 282.091 310.526 285.632C309.228 289.127 307.491 293.068 305.746 296.78C304.003 300.49 302.259 303.956 300.95 306.495C300.443 307.478 300.001 308.322 299.651 308.987Z" stroke="white" stroke-width="2"/>
</g>
<g filter="url(#filter7_d_31_4253)">
<path d="M369.651 168.115C361.918 168.115 355.651 174.505 355.651 182.385C355.651 190.267 369.651 216.115 369.651 216.115C369.651 216.115 383.651 190.267 383.651 182.385C383.651 174.505 377.381 168.115 369.651 168.115Z" fill="url(#paint7_linear_31_4253)"/>
<path d="M369.651 213.987C369.301 213.322 368.859 212.478 368.352 211.495C367.043 208.956 365.299 205.49 363.556 201.78C361.812 198.068 360.075 194.127 358.776 190.632C357.46 187.091 356.651 184.154 356.651 182.385C356.651 175.039 362.488 169.115 369.651 169.115C376.811 169.115 382.651 175.04 382.651 182.385C382.651 184.154 381.843 187.091 380.526 190.632C379.228 194.127 377.491 198.068 375.746 201.78C374.003 205.49 372.259 208.956 370.95 211.495C370.443 212.478 370.001 213.322 369.651 213.987Z" stroke="white" stroke-width="2"/>
</g>
<g filter="url(#filter8_d_31_4253)">
<path d="M284.651 207.115C276.918 207.115 270.651 213.505 270.651 221.385C270.651 229.267 284.651 255.115 284.651 255.115C284.651 255.115 298.651 229.267 298.651 221.385C298.651 213.505 292.381 207.115 284.651 207.115Z" fill="url(#paint8_linear_31_4253)"/>
<path d="M284.651 252.987C284.301 252.322 283.859 251.478 283.352 250.495C282.043 247.956 280.299 244.49 278.556 240.78C276.812 237.068 275.075 233.127 273.776 229.632C272.46 226.091 271.651 223.154 271.651 221.385C271.651 214.039 277.488 208.115 284.651 208.115C291.811 208.115 297.651 214.04 297.651 221.385C297.651 223.154 296.843 226.091 295.526 229.632C294.228 233.127 292.491 237.068 290.746 240.78C289.003 244.49 287.259 247.956 285.95 250.495C285.443 251.478 285.001 252.322 284.651 252.987Z" stroke="white" stroke-width="2"/>
</g>
<g filter="url(#filter9_d_31_4253)">
<path d="M225.651 185.115C217.918 185.115 211.651 191.505 211.651 199.385C211.651 207.267 225.651 233.115 225.651 233.115C225.651 233.115 239.651 207.267 239.651 199.385C239.651 191.505 233.381 185.115 225.651 185.115Z" fill="url(#paint9_linear_31_4253)"/>
<path d="M225.651 230.987C225.301 230.322 224.859 229.478 224.352 228.495C223.043 225.956 221.299 222.49 219.556 218.78C217.812 215.068 216.075 211.127 214.776 207.632C213.46 204.091 212.651 201.154 212.651 199.385C212.651 192.039 218.488 186.115 225.651 186.115C232.811 186.115 238.651 192.04 238.651 199.385C238.651 201.154 237.843 204.091 236.526 207.632C235.228 211.127 233.491 215.068 231.746 218.78C230.003 222.49 228.259 225.956 226.95 228.495C226.443 229.478 226.001 230.322 225.651 230.987Z" stroke="white" stroke-width="2"/>
</g>
<g filter="url(#filter10_d_31_4253)">
<path d="M249.651 125.115C241.918 125.115 235.651 131.505 235.651 139.385C235.651 147.267 249.651 173.115 249.651 173.115C249.651 173.115 263.651 147.267 263.651 139.385C263.651 131.505 257.381 125.115 249.651 125.115Z" fill="url(#paint10_linear_31_4253)"/>
<path d="M249.651 170.987C249.301 170.322 248.859 169.478 248.352 168.495C247.043 165.956 245.299 162.49 243.556 158.78C241.812 155.068 240.075 151.127 238.776 147.632C237.46 144.091 236.651 141.154 236.651 139.385C236.651 132.039 242.488 126.115 249.651 126.115C256.811 126.115 262.651 132.04 262.651 139.385C262.651 141.154 261.843 144.091 260.526 147.632C259.228 151.127 257.491 155.068 255.746 158.78C254.003 162.49 252.259 165.956 250.95 168.495C250.443 169.478 250.001 170.322 249.651 170.987Z" stroke="white" stroke-width="2"/>
</g>
<g filter="url(#filter11_d_31_4253)">
<path d="M285.651 134.115C277.918 134.115 271.651 140.505 271.651 148.385C271.651 156.267 285.651 182.115 285.651 182.115C285.651 182.115 299.651 156.267 299.651 148.385C299.651 140.505 293.381 134.115 285.651 134.115Z" fill="url(#paint11_linear_31_4253)"/>
<path d="M285.651 179.987C285.301 179.322 284.859 178.478 284.352 177.495C283.043 174.956 281.299 171.49 279.556 167.78C277.812 164.068 276.075 160.127 274.776 156.632C273.46 153.091 272.651 150.154 272.651 148.385C272.651 141.039 278.488 135.115 285.651 135.115C292.811 135.115 298.651 141.04 298.651 148.385C298.651 150.154 297.843 153.091 296.526 156.632C295.228 160.127 293.491 164.068 291.746 167.78C290.003 171.49 288.259 174.956 286.95 177.495C286.443 178.478 286.001 179.322 285.651 179.987Z" stroke="white" stroke-width="2"/>
</g>
<g filter="url(#filter12_d_31_4253)">
<path d="M281.651 104.115C273.918 104.115 267.651 110.505 267.651 118.385C267.651 126.267 281.651 152.115 281.651 152.115C281.651 152.115 295.651 126.267 295.651 118.385C295.651 110.505 289.381 104.115 281.651 104.115Z" fill="url(#paint12_linear_31_4253)"/>
<path d="M281.651 149.987C281.301 149.322 280.859 148.478 280.352 147.495C279.043 144.956 277.299 141.49 275.556 137.78C273.812 134.068 272.075 130.127 270.776 126.632C269.46 123.091 268.651 120.154 268.651 118.385C268.651 111.039 274.488 105.115 281.651 105.115C288.811 105.115 294.651 111.04 294.651 118.385C294.651 120.154 293.843 123.091 292.526 126.632C291.228 130.127 289.491 134.068 287.746 137.78C286.003 141.49 284.259 144.956 282.95 147.495C282.443 148.478 282.001 149.322 281.651 149.987Z" stroke="white" stroke-width="2"/>
</g>
<g filter="url(#filter13_d_31_4253)">
<path d="M261.186 110.787C253.453 110.787 247.187 117.177 247.187 125.057C247.187 132.939 261.186 158.787 261.186 158.787C261.186 158.787 275.187 132.939 275.187 125.057C275.187 117.177 268.916 110.787 261.186 110.787Z" fill="url(#paint13_linear_31_4253)"/>
<path d="M261.186 156.659C260.836 155.994 260.394 155.15 259.887 154.167C258.579 151.627 256.835 148.161 255.091 144.452C253.347 140.74 251.61 136.798 250.311 133.304C248.995 129.763 248.187 126.826 248.187 125.057C248.187 117.711 254.024 111.787 261.186 111.787C268.346 111.787 274.187 117.711 274.187 125.057C274.187 126.826 273.378 129.763 272.062 133.304C270.763 136.798 269.026 140.74 267.281 144.452C265.538 148.161 263.794 151.627 262.485 154.167C261.978 155.15 261.536 155.994 261.186 156.659Z" stroke="white" stroke-width="2"/>
</g>
<g filter="url(#filter14_d_31_4253)">
<path d="M275.186 130.787C267.453 130.787 261.187 137.177 261.187 145.057C261.187 152.939 275.186 178.787 275.186 178.787C275.186 178.787 289.187 152.939 289.187 145.057C289.187 137.177 282.916 130.787 275.186 130.787Z" fill="url(#paint14_linear_31_4253)"/>
<path d="M275.186 176.659C274.836 175.994 274.394 175.15 273.887 174.167C272.579 171.627 270.835 168.161 269.091 164.452C267.347 160.74 265.61 156.798 264.311 153.304C262.995 149.763 262.187 146.826 262.187 145.057C262.187 137.711 268.024 131.787 275.186 131.787C282.346 131.787 288.187 137.711 288.187 145.057C288.187 146.826 287.378 149.763 286.062 153.304C284.763 156.798 283.026 160.74 281.281 164.452C279.538 168.161 277.794 171.627 276.485 174.167C275.978 175.15 275.536 175.994 275.186 176.659Z" stroke="white" stroke-width="2"/>
</g>
<g filter="url(#filter15_d_31_4253)">
<path d="M262.186 139.787C254.453 139.787 248.187 146.177 248.187 154.057C248.187 161.939 262.186 187.787 262.186 187.787C262.186 187.787 276.187 161.939 276.187 154.057C276.187 146.177 269.916 139.787 262.186 139.787Z" fill="url(#paint15_linear_31_4253)"/>
<path d="M262.186 185.659C261.836 184.994 261.394 184.15 260.887 183.167C259.579 180.627 257.835 177.161 256.091 173.452C254.347 169.74 252.61 165.798 251.311 162.304C249.995 158.763 249.187 155.826 249.187 154.057C249.187 146.711 255.024 140.787 262.186 140.787C269.346 140.787 275.187 146.711 275.187 154.057C275.187 155.826 274.378 158.763 273.062 162.304C271.763 165.798 270.026 169.74 268.281 173.452C266.538 177.161 264.794 180.627 263.485 183.167C262.978 184.15 262.536 184.994 262.186 185.659Z" stroke="white" stroke-width="2"/>
</g>
<g filter="url(#filter16_d_31_4253)">
<path d="M239.186 190.787C231.453 190.787 225.187 197.177 225.187 205.057C225.187 212.939 239.186 238.787 239.186 238.787C239.186 238.787 253.187 212.939 253.187 205.057C253.187 197.177 246.916 190.787 239.186 190.787Z" fill="url(#paint16_linear_31_4253)"/>
<path d="M239.186 236.659C238.836 235.994 238.394 235.15 237.887 234.167C236.579 231.627 234.835 228.161 233.091 224.452C231.347 220.74 229.61 216.798 228.311 213.304C226.995 209.763 226.187 206.826 226.187 205.057C226.187 197.711 232.024 191.787 239.186 191.787C246.346 191.787 252.187 197.711 252.187 205.057C252.187 206.826 251.378 209.763 250.062 213.304C248.763 216.798 247.026 220.74 245.281 224.452C243.538 228.161 241.794 231.627 240.485 234.167C239.978 235.15 239.536 235.994 239.186 236.659Z" stroke="white" stroke-width="2"/>
</g>
<g filter="url(#filter17_d_31_4253)">
<path d="M217.186 205.787C209.453 205.787 203.187 212.177 203.187 220.057C203.187 227.939 217.186 253.787 217.186 253.787C217.186 253.787 231.187 227.939 231.187 220.057C231.187 212.177 224.916 205.787 217.186 205.787Z" fill="url(#paint17_linear_31_4253)"/>
<path d="M217.186 251.659C216.836 250.994 216.394 250.15 215.887 249.167C214.579 246.627 212.835 243.161 211.091 239.452C209.347 235.74 207.61 231.798 206.311 228.304C204.995 224.763 204.187 221.826 204.187 220.057C204.187 212.711 210.024 206.787 217.186 206.787C224.346 206.787 230.187 212.711 230.187 220.057C230.187 221.826 229.378 224.763 228.062 228.304C226.763 231.798 225.026 235.74 223.281 239.452C221.538 243.161 219.794 246.627 218.485 249.167C217.978 250.15 217.536 250.994 217.186 251.659Z" stroke="white" stroke-width="2"/>
</g>
<g filter="url(#filter18_d_31_4253)">
<path d="M158.186 189.787C150.453 189.787 144.187 196.177 144.187 204.057C144.187 211.939 158.186 237.787 158.186 237.787C158.186 237.787 172.187 211.939 172.187 204.057C172.187 196.177 165.916 189.787 158.186 189.787Z" fill="url(#paint18_linear_31_4253)"/>
<path d="M158.186 235.659C157.836 234.994 157.394 234.15 156.887 233.167C155.579 230.627 153.835 227.161 152.091 223.452C150.347 219.74 148.61 215.798 147.311 212.304C145.995 208.763 145.187 205.826 145.187 204.057C145.187 196.711 151.024 190.787 158.186 190.787C165.346 190.787 171.187 196.711 171.187 204.057C171.187 205.826 170.378 208.763 169.062 212.304C167.763 215.798 166.026 219.74 164.281 223.452C162.538 227.161 160.794 230.627 159.485 233.167C158.978 234.15 158.536 234.994 158.186 235.659Z" stroke="white" stroke-width="2"/>
</g>
<g filter="url(#filter19_d_31_4253)">
<path d="M262.186 287.581C254.453 287.581 248.187 293.972 248.187 301.852C248.187 309.733 262.186 335.581 262.186 335.581C262.186 335.581 276.187 309.733 276.187 301.852C276.187 293.972 269.916 287.581 262.186 287.581Z" fill="url(#paint19_linear_31_4253)"/>
<path d="M262.186 333.453C261.836 332.789 261.394 331.945 260.887 330.961C259.579 328.422 257.835 324.956 256.091 321.247C254.347 317.535 252.61 313.593 251.311 310.099C249.995 306.557 249.187 303.62 249.187 301.852C249.187 294.506 255.024 288.581 262.186 288.581C269.346 288.581 275.187 294.506 275.187 301.852C275.187 303.62 274.378 306.557 273.062 310.099C271.763 313.593 270.026 317.535 268.281 321.247C266.538 324.956 264.794 328.422 263.485 330.961C262.978 331.945 262.536 332.789 262.186 333.453Z" stroke="white" stroke-width="2"/>
</g>
<g filter="url(#filter20_d_31_4253)">
<path d="M269.186 348.517C261.453 348.517 255.187 354.907 255.187 362.787C255.187 370.669 269.186 396.517 269.186 396.517C269.186 396.517 283.187 370.669 283.187 362.787C283.187 354.907 276.916 348.517 269.186 348.517Z" fill="url(#paint20_linear_31_4253)"/>
<path d="M269.186 394.389C268.836 393.724 268.394 392.88 267.887 391.897C266.579 389.357 264.835 385.892 263.091 382.182C261.347 378.47 259.61 374.529 258.311 371.034C256.995 367.493 256.187 364.556 256.187 362.787C256.187 355.441 262.024 349.517 269.186 349.517C276.346 349.517 282.187 355.441 282.187 362.787C282.187 364.556 281.378 367.493 280.062 371.034C278.763 374.529 277.026 378.47 275.281 382.182C273.538 385.892 271.794 389.357 270.485 391.897C269.978 392.88 269.536 393.724 269.186 394.389Z" stroke="white" stroke-width="2"/>
</g>
<g filter="url(#filter21_d_31_4253)">
<path d="M511.186 294.517C503.453 294.517 497.187 300.907 497.187 308.787C497.187 316.669 511.186 342.517 511.186 342.517C511.186 342.517 525.187 316.669 525.187 308.787C525.187 300.907 518.916 294.517 511.186 294.517Z" fill="url(#paint21_linear_31_4253)"/>
<path d="M511.186 340.389C510.836 339.724 510.394 338.88 509.887 337.897C508.579 335.357 506.835 331.892 505.091 328.182C503.347 324.47 501.61 320.529 500.311 317.034C498.995 313.493 498.187 310.556 498.187 308.787C498.187 301.441 504.024 295.517 511.186 295.517C518.346 295.517 524.187 301.441 524.187 308.787C524.187 310.556 523.378 313.493 522.062 317.034C520.763 320.529 519.026 324.47 517.281 328.182C515.538 331.892 513.794 335.357 512.485 337.897C511.978 338.88 511.536 339.724 511.186 340.389Z" stroke="white" stroke-width="2"/>
</g>
<g filter="url(#filter22_d_31_4253)">
<path d="M341.565 30.5168C333.832 30.5168 327.565 36.9072 327.565 44.7871C327.565 52.6689 341.565 78.5168 341.565 78.5168C341.565 78.5168 355.565 52.6689 355.565 44.7871C355.565 36.9072 349.295 30.5168 341.565 30.5168Z" fill="url(#paint22_linear_31_4253)"/>
<path d="M341.565 76.389C341.215 75.7242 340.773 74.8802 340.266 73.8968C338.958 71.3574 337.213 67.8916 335.47 64.1823C333.726 60.4702 331.989 56.5286 330.69 53.0342C329.374 49.493 328.565 46.5557 328.565 44.7871C328.565 37.4413 334.402 31.5168 341.565 31.5168C348.725 31.5168 354.565 37.4415 354.565 44.7871C354.565 46.5557 353.757 49.493 352.44 53.0341C351.142 56.5286 349.405 60.4702 347.66 64.1823C345.917 67.8915 344.173 71.3574 342.864 73.8968C342.357 74.8802 341.915 75.7242 341.565 76.389Z" stroke="white" stroke-width="2"/>
</g>
<defs>
<filter id="filter0_d_31_4253" x="538.151" y="144.115" width="29" height="49.5" filterUnits="userSpaceOnUse" color-interpolation-filters="sRGB">
<feFlood flood-opacity="0" result="BackgroundImageFix"/>
<feColorMatrix in="SourceAlpha" type="matrix" values="0 0 0 0 0 0 0 0 0 0 0 0 0 0 0 0 0 0 127 0" result="hardAlpha"/>
<feOffset dy="1"/>
<feGaussianBlur stdDeviation="0.25"/>
<feComposite in2="hardAlpha" operator="out"/>
<feColorMatrix type="matrix" values="0 0 0 0 0 0 0 0 0 0 0 0 0 0 0 0 0 0 0.2 0"/>
<feBlend mode="normal" in2="BackgroundImageFix" result="effect1_dropShadow_31_4253"/>
<feBlend mode="normal" in="SourceGraphic" in2="effect1_dropShadow_31_4253" result="shape"/>
</filter>
<filter id="filter1_d_31_4253" x="498.151" y="245.115" width="29" height="49.5" filterUnits="userSpaceOnUse" color-interpolation-filters="sRGB">
<feFlood flood-opacity="0" result="BackgroundImageFix"/>
<feColorMatrix in="SourceAlpha" type="matrix" values="0 0 0 0 0 0 0 0 0 0 0 0 0 0 0 0 0 0 127 0" result="hardAlpha"/>
<feOffset dy="1"/>
<feGaussianBlur stdDeviation="0.25"/>
<feComposite in2="hardAlpha" operator="out"/>
<feColorMatrix type="matrix" values="0 0 0 0 0 0 0 0 0 0 0 0 0 0 0 0 0 0 0.2 0"/>
<feBlend mode="normal" in2="BackgroundImageFix" result="effect1_dropShadow_31_4253"/>
<feBlend mode="normal" in="SourceGraphic" in2="effect1_dropShadow_31_4253" result="shape"/>
</filter>
<filter id="filter2_d_31_4253" x="584.151" y="296.115" width="29" height="49.5" filterUnits="userSpaceOnUse" color-interpolation-filters="sRGB">
<feFlood flood-opacity="0" result="BackgroundImageFix"/>
<feColorMatrix in="SourceAlpha" type="matrix" values="0 0 0 0 0 0 0 0 0 0 0 0 0 0 0 0 0 0 127 0" result="hardAlpha"/>
<feOffset dy="1"/>
<feGaussianBlur stdDeviation="0.25"/>
<feComposite in2="hardAlpha" operator="out"/>
<feColorMatrix type="matrix" values="0 0 0 0 0 0 0 0 0 0 0 0 0 0 0 0 0 0 0.2 0"/>
<feBlend mode="normal" in2="BackgroundImageFix" result="effect1_dropShadow_31_4253"/>
<feBlend mode="normal" in="SourceGraphic" in2="effect1_dropShadow_31_4253" result="shape"/>
</filter>
<filter id="filter3_d_31_4253" x="337.151" y="119.115" width="29" height="49.5" filterUnits="userSpaceOnUse" color-interpolation-filters="sRGB">
<feFlood flood-opacity="0" result="BackgroundImageFix"/>
<feColorMatrix in="SourceAlpha" type="matrix" values="0 0 0 0 0 0 0 0 0 0 0 0 0 0 0 0 0 0 127 0" result="hardAlpha"/>
<feOffset dy="1"/>
<feGaussianBlur stdDeviation="0.25"/>
<feComposite in2="hardAlpha" operator="out"/>
<feColorMatrix type="matrix" values="0 0 0 0 0 0 0 0 0 0 0 0 0 0 0 0 0 0 0.2 0"/>
<feBlend mode="normal" in2="BackgroundImageFix" result="effect1_dropShadow_31_4253"/>
<feBlend mode="normal" in="SourceGraphic" in2="effect1_dropShadow_31_4253" result="shape"/>
</filter>
<filter id="filter4_d_31_4253" x="295.151" y="310.115" width="29" height="49.5" filterUnits="userSpaceOnUse" color-interpolation-filters="sRGB">
<feFlood flood-opacity="0" result="BackgroundImageFix"/>
<feColorMatrix in="SourceAlpha" type="matrix" values="0 0 0 0 0 0 0 0 0 0 0 0 0 0 0 0 0 0 127 0" result="hardAlpha"/>
<feOffset dy="1"/>
<feGaussianBlur stdDeviation="0.25"/>
<feComposite in2="hardAlpha" operator="out"/>
<feColorMatrix type="matrix" values="0 0 0 0 0 0 0 0 0 0 0 0 0 0 0 0 0 0 0.2 0"/>
<feBlend mode="normal" in2="BackgroundImageFix" result="effect1_dropShadow_31_4253"/>
<feBlend mode="normal" in="SourceGraphic" in2="effect1_dropShadow_31_4253" result="shape"/>
</filter>
<filter id="filter5_d_31_4253" x="214.151" y="298.115" width="29" height="49.5" filterUnits="userSpaceOnUse" color-interpolation-filters="sRGB">
<feFlood flood-opacity="0" result="BackgroundImageFix"/>
<feColorMatrix in="SourceAlpha" type="matrix" values="0 0 0 0 0 0 0 0 0 0 0 0 0 0 0 0 0 0 127 0" result="hardAlpha"/>
<feOffset dy="1"/>
<feGaussianBlur stdDeviation="0.25"/>
<feComposite in2="hardAlpha" operator="out"/>
<feColorMatrix type="matrix" values="0 0 0 0 0 0 0 0 0 0 0 0 0 0 0 0 0 0 0.2 0"/>
<feBlend mode="normal" in2="BackgroundImageFix" result="effect1_dropShadow_31_4253"/>
<feBlend mode="normal" in="SourceGraphic" in2="effect1_dropShadow_31_4253" result="shape"/>
</filter>
<filter id="filter6_d_31_4253" x="285.151" y="263.115" width="29" height="49.5" filterUnits="userSpaceOnUse" color-interpolation-filters="sRGB">
<feFlood flood-opacity="0" result="BackgroundImageFix"/>
<feColorMatrix in="SourceAlpha" type="matrix" values="0 0 0 0 0 0 0 0 0 0 0 0 0 0 0 0 0 0 127 0" result="hardAlpha"/>
<feOffset dy="1"/>
<feGaussianBlur stdDeviation="0.25"/>
<feComposite in2="hardAlpha" operator="out"/>
<feColorMatrix type="matrix" values="0 0 0 0 0 0 0 0 0 0 0 0 0 0 0 0 0 0 0.2 0"/>
<feBlend mode="normal" in2="BackgroundImageFix" result="effect1_dropShadow_31_4253"/>
<feBlend mode="normal" in="SourceGraphic" in2="effect1_dropShadow_31_4253" result="shape"/>
</filter>
<filter id="filter7_d_31_4253" x="355.151" y="168.115" width="29" height="49.5" filterUnits="userSpaceOnUse" color-interpolation-filters="sRGB">
<feFlood flood-opacity="0" result="BackgroundImageFix"/>
<feColorMatrix in="SourceAlpha" type="matrix" values="0 0 0 0 0 0 0 0 0 0 0 0 0 0 0 0 0 0 127 0" result="hardAlpha"/>
<feOffset dy="1"/>
<feGaussianBlur stdDeviation="0.25"/>
<feComposite in2="hardAlpha" operator="out"/>
<feColorMatrix type="matrix" values="0 0 0 0 0 0 0 0 0 0 0 0 0 0 0 0 0 0 0.2 0"/>
<feBlend mode="normal" in2="BackgroundImageFix" result="effect1_dropShadow_31_4253"/>
<feBlend mode="normal" in="SourceGraphic" in2="effect1_dropShadow_31_4253" result="shape"/>
</filter>
<filter id="filter8_d_31_4253" x="270.151" y="207.115" width="29" height="49.5" filterUnits="userSpaceOnUse" color-interpolation-filters="sRGB">
<feFlood flood-opacity="0" result="BackgroundImageFix"/>
<feColorMatrix in="SourceAlpha" type="matrix" values="0 0 0 0 0 0 0 0 0 0 0 0 0 0 0 0 0 0 127 0" result="hardAlpha"/>
<feOffset dy="1"/>
<feGaussianBlur stdDeviation="0.25"/>
<feComposite in2="hardAlpha" operator="out"/>
<feColorMatrix type="matrix" values="0 0 0 0 0 0 0 0 0 0 0 0 0 0 0 0 0 0 0.2 0"/>
<feBlend mode="normal" in2="BackgroundImageFix" result="effect1_dropShadow_31_4253"/>
<feBlend mode="normal" in="SourceGraphic" in2="effect1_dropShadow_31_4253" result="shape"/>
</filter>
<filter id="filter9_d_31_4253" x="211.151" y="185.115" width="29" height="49.5" filterUnits="userSpaceOnUse" color-interpolation-filters="sRGB">
<feFlood flood-opacity="0" result="BackgroundImageFix"/>
<feColorMatrix in="SourceAlpha" type="matrix" values="0 0 0 0 0 0 0 0 0 0 0 0 0 0 0 0 0 0 127 0" result="hardAlpha"/>
<feOffset dy="1"/>
<feGaussianBlur stdDeviation="0.25"/>
<feComposite in2="hardAlpha" operator="out"/>
<feColorMatrix type="matrix" values="0 0 0 0 0 0 0 0 0 0 0 0 0 0 0 0 0 0 0.2 0"/>
<feBlend mode="normal" in2="BackgroundImageFix" result="effect1_dropShadow_31_4253"/>
<feBlend mode="normal" in="SourceGraphic" in2="effect1_dropShadow_31_4253" result="shape"/>
</filter>
<filter id="filter10_d_31_4253" x="235.151" y="125.115" width="29" height="49.5" filterUnits="userSpaceOnUse" color-interpolation-filters="sRGB">
<feFlood flood-opacity="0" result="BackgroundImageFix"/>
<feColorMatrix in="SourceAlpha" type="matrix" values="0 0 0 0 0 0 0 0 0 0 0 0 0 0 0 0 0 0 127 0" result="hardAlpha"/>
<feOffset dy="1"/>
<feGaussianBlur stdDeviation="0.25"/>
<feComposite in2="hardAlpha" operator="out"/>
<feColorMatrix type="matrix" values="0 0 0 0 0 0 0 0 0 0 0 0 0 0 0 0 0 0 0.2 0"/>
<feBlend mode="normal" in2="BackgroundImageFix" result="effect1_dropShadow_31_4253"/>
<feBlend mode="normal" in="SourceGraphic" in2="effect1_dropShadow_31_4253" result="shape"/>
</filter>
<filter id="filter11_d_31_4253" x="271.151" y="134.115" width="29" height="49.5" filterUnits="userSpaceOnUse" color-interpolation-filters="sRGB">
<feFlood flood-opacity="0" result="BackgroundImageFix"/>
<feColorMatrix in="SourceAlpha" type="matrix" values="0 0 0 0 0 0 0 0 0 0 0 0 0 0 0 0 0 0 127 0" result="hardAlpha"/>
<feOffset dy="1"/>
<feGaussianBlur stdDeviation="0.25"/>
<feComposite in2="hardAlpha" operator="out"/>
<feColorMatrix type="matrix" values="0 0 0 0 0 0 0 0 0 0 0 0 0 0 0 0 0 0 0.2 0"/>
<feBlend mode="normal" in2="BackgroundImageFix" result="effect1_dropShadow_31_4253"/>
<feBlend mode="normal" in="SourceGraphic" in2="effect1_dropShadow_31_4253" result="shape"/>
</filter>
<filter id="filter12_d_31_4253" x="267.151" y="104.115" width="29" height="49.5" filterUnits="userSpaceOnUse" color-interpolation-filters="sRGB">
<feFlood flood-opacity="0" result="BackgroundImageFix"/>
<feColorMatrix in="SourceAlpha" type="matrix" values="0 0 0 0 0 0 0 0 0 0 0 0 0 0 0 0 0 0 127 0" result="hardAlpha"/>
<feOffset dy="1"/>
<feGaussianBlur stdDeviation="0.25"/>
<feComposite in2="hardAlpha" operator="out"/>
<feColorMatrix type="matrix" values="0 0 0 0 0 0 0 0 0 0 0 0 0 0 0 0 0 0 0.2 0"/>
<feBlend mode="normal" in2="BackgroundImageFix" result="effect1_dropShadow_31_4253"/>
<feBlend mode="normal" in="SourceGraphic" in2="effect1_dropShadow_31_4253" result="shape"/>
</filter>
<filter id="filter13_d_31_4253" x="246.687" y="110.787" width="29" height="49.5" filterUnits="userSpaceOnUse" color-interpolation-filters="sRGB">
<feFlood flood-opacity="0" result="BackgroundImageFix"/>
<feColorMatrix in="SourceAlpha" type="matrix" values="0 0 0 0 0 0 0 0 0 0 0 0 0 0 0 0 0 0 127 0" result="hardAlpha"/>
<feOffset dy="1"/>
<feGaussianBlur stdDeviation="0.25"/>
<feComposite in2="hardAlpha" operator="out"/>
<feColorMatrix type="matrix" values="0 0 0 0 0 0 0 0 0 0 0 0 0 0 0 0 0 0 0.2 0"/>
<feBlend mode="normal" in2="BackgroundImageFix" result="effect1_dropShadow_31_4253"/>
<feBlend mode="normal" in="SourceGraphic" in2="effect1_dropShadow_31_4253" result="shape"/>
</filter>
<filter id="filter14_d_31_4253" x="260.687" y="130.787" width="29" height="49.5" filterUnits="userSpaceOnUse" color-interpolation-filters="sRGB">
<feFlood flood-opacity="0" result="BackgroundImageFix"/>
<feColorMatrix in="SourceAlpha" type="matrix" values="0 0 0 0 0 0 0 0 0 0 0 0 0 0 0 0 0 0 127 0" result="hardAlpha"/>
<feOffset dy="1"/>
<feGaussianBlur stdDeviation="0.25"/>
<feComposite in2="hardAlpha" operator="out"/>
<feColorMatrix type="matrix" values="0 0 0 0 0 0 0 0 0 0 0 0 0 0 0 0 0 0 0.2 0"/>
<feBlend mode="normal" in2="BackgroundImageFix" result="effect1_dropShadow_31_4253"/>
<feBlend mode="normal" in="SourceGraphic" in2="effect1_dropShadow_31_4253" result="shape"/>
</filter>
<filter id="filter15_d_31_4253" x="247.687" y="139.787" width="29" height="49.5" filterUnits="userSpaceOnUse" color-interpolation-filters="sRGB">
<feFlood flood-opacity="0" result="BackgroundImageFix"/>
<feColorMatrix in="SourceAlpha" type="matrix" values="0 0 0 0 0 0 0 0 0 0 0 0 0 0 0 0 0 0 127 0" result="hardAlpha"/>
<feOffset dy="1"/>
<feGaussianBlur stdDeviation="0.25"/>
<feComposite in2="hardAlpha" operator="out"/>
<feColorMatrix type="matrix" values="0 0 0 0 0 0 0 0 0 0 0 0 0 0 0 0 0 0 0.2 0"/>
<feBlend mode="normal" in2="BackgroundImageFix" result="effect1_dropShadow_31_4253"/>
<feBlend mode="normal" in="SourceGraphic" in2="effect1_dropShadow_31_4253" result="shape"/>
</filter>
<filter id="filter16_d_31_4253" x="224.687" y="190.787" width="29" height="49.5" filterUnits="userSpaceOnUse" color-interpolation-filters="sRGB">
<feFlood flood-opacity="0" result="BackgroundImageFix"/>
<feColorMatrix in="SourceAlpha" type="matrix" values="0 0 0 0 0 0 0 0 0 0 0 0 0 0 0 0 0 0 127 0" result="hardAlpha"/>
<feOffset dy="1"/>
<feGaussianBlur stdDeviation="0.25"/>
<feComposite in2="hardAlpha" operator="out"/>
<feColorMatrix type="matrix" values="0 0 0 0 0 0 0 0 0 0 0 0 0 0 0 0 0 0 0.2 0"/>
<feBlend mode="normal" in2="BackgroundImageFix" result="effect1_dropShadow_31_4253"/>
<feBlend mode="normal" in="SourceGraphic" in2="effect1_dropShadow_31_4253" result="shape"/>
</filter>
<filter id="filter17_d_31_4253" x="202.687" y="205.787" width="29" height="49.5" filterUnits="userSpaceOnUse" color-interpolation-filters="sRGB">
<feFlood flood-opacity="0" result="BackgroundImageFix"/>
<feColorMatrix in="SourceAlpha" type="matrix" values="0 0 0 0 0 0 0 0 0 0 0 0 0 0 0 0 0 0 127 0" result="hardAlpha"/>
<feOffset dy="1"/>
<feGaussianBlur stdDeviation="0.25"/>
<feComposite in2="hardAlpha" operator="out"/>
<feColorMatrix type="matrix" values="0 0 0 0 0 0 0 0 0 0 0 0 0 0 0 0 0 0 0.2 0"/>
<feBlend mode="normal" in2="BackgroundImageFix" result="effect1_dropShadow_31_4253"/>
<feBlend mode="normal" in="SourceGraphic" in2="effect1_dropShadow_31_4253" result="shape"/>
</filter>
<filter id="filter18_d_31_4253" x="143.687" y="189.787" width="29" height="49.5" filterUnits="userSpaceOnUse" color-interpolation-filters="sRGB">
<feFlood flood-opacity="0" result="BackgroundImageFix"/>
<feColorMatrix in="SourceAlpha" type="matrix" values="0 0 0 0 0 0 0 0 0 0 0 0 0 0 0 0 0 0 127 0" result="hardAlpha"/>
<feOffset dy="1"/>
<feGaussianBlur stdDeviation="0.25"/>
<feComposite in2="hardAlpha" operator="out"/>
<feColorMatrix type="matrix" values="0 0 0 0 0 0 0 0 0 0 0 0 0 0 0 0 0 0 0.2 0"/>
<feBlend mode="normal" in2="BackgroundImageFix" result="effect1_dropShadow_31_4253"/>
<feBlend mode="normal" in="SourceGraphic" in2="effect1_dropShadow_31_4253" result="shape"/>
</filter>
<filter id="filter19_d_31_4253" x="247.687" y="287.581" width="29" height="49.5" filterUnits="userSpaceOnUse" color-interpolation-filters="sRGB">
<feFlood flood-opacity="0" result="BackgroundImageFix"/>
<feColorMatrix in="SourceAlpha" type="matrix" values="0 0 0 0 0 0 0 0 0 0 0 0 0 0 0 0 0 0 127 0" result="hardAlpha"/>
<feOffset dy="1"/>
<feGaussianBlur stdDeviation="0.25"/>
<feComposite in2="hardAlpha" operator="out"/>
<feColorMatrix type="matrix" values="0 0 0 0 0 0 0 0 0 0 0 0 0 0 0 0 0 0 0.2 0"/>
<feBlend mode="normal" in2="BackgroundImageFix" result="effect1_dropShadow_31_4253"/>
<feBlend mode="normal" in="SourceGraphic" in2="effect1_dropShadow_31_4253" result="shape"/>
</filter>
<filter id="filter20_d_31_4253" x="254.687" y="348.517" width="29" height="49.5" filterUnits="userSpaceOnUse" color-interpolation-filters="sRGB">
<feFlood flood-opacity="0" result="BackgroundImageFix"/>
<feColorMatrix in="SourceAlpha" type="matrix" values="0 0 0 0 0 0 0 0 0 0 0 0 0 0 0 0 0 0 127 0" result="hardAlpha"/>
<feOffset dy="1"/>
<feGaussianBlur stdDeviation="0.25"/>
<feComposite in2="hardAlpha" operator="out"/>
<feColorMatrix type="matrix" values="0 0 0 0 0 0 0 0 0 0 0 0 0 0 0 0 0 0 0.2 0"/>
<feBlend mode="normal" in2="BackgroundImageFix" result="effect1_dropShadow_31_4253"/>
<feBlend mode="normal" in="SourceGraphic" in2="effect1_dropShadow_31_4253" result="shape"/>
</filter>
<filter id="filter21_d_31_4253" x="496.687" y="294.517" width="29" height="49.5" filterUnits="userSpaceOnUse" color-interpolation-filters="sRGB">
<feFlood flood-opacity="0" result="BackgroundImageFix"/>
<feColorMatrix in="SourceAlpha" type="matrix" values="0 0 0 0 0 0 0 0 0 0 0 0 0 0 0 0 0 0 127 0" result="hardAlpha"/>
<feOffset dy="1"/>
<feGaussianBlur stdDeviation="0.25"/>
<feComposite in2="hardAlpha" operator="out"/>
<feColorMatrix type="matrix" values="0 0 0 0 0 0 0 0 0 0 0 0 0 0 0 0 0 0 0.2 0"/>
<feBlend mode="normal" in2="BackgroundImageFix" result="effect1_dropShadow_31_4253"/>
<feBlend mode="normal" in="SourceGraphic" in2="effect1_dropShadow_31_4253" result="shape"/>
</filter>
<filter id="filter22_d_31_4253" x="327.065" y="30.5168" width="29" height="49.5" filterUnits="userSpaceOnUse" color-interpolation-filters="sRGB">
<feFlood flood-opacity="0" result="BackgroundImageFix"/>
<feColorMatrix in="SourceAlpha" type="matrix" values="0 0 0 0 0 0 0 0 0 0 0 0 0 0 0 0 0 0 127 0" result="hardAlpha"/>
<feOffset dy="1"/>
<feGaussianBlur stdDeviation="0.25"/>
<feComposite in2="hardAlpha" operator="out"/>
<feColorMatrix type="matrix" values="0 0 0 0 0 0 0 0 0 0 0 0 0 0 0 0 0 0 0.2 0"/>
<feBlend mode="normal" in2="BackgroundImageFix" result="effect1_dropShadow_31_4253"/>
<feBlend mode="normal" in="SourceGraphic" in2="effect1_dropShadow_31_4253" result="shape"/>
</filter>
<linearGradient id="paint0_linear_31_4253" x1="545.651" y1="156.115" x2="545.651" y2="156.115" gradientUnits="userSpaceOnUse">
<stop stop-color="#00D0AE"/>
<stop offset="1" stop-color="#00A88F"/>
</linearGradient>
<linearGradient id="paint1_linear_31_4253" x1="505.651" y1="257.115" x2="505.651" y2="257.115" gradientUnits="userSpaceOnUse">
<stop stop-color="#00D0AE"/>
<stop offset="1" stop-color="#00A88F"/>
</linearGradient>
<linearGradient id="paint2_linear_31_4253" x1="591.651" y1="308.115" x2="591.651" y2="308.115" gradientUnits="userSpaceOnUse">
<stop stop-color="#00D0AE"/>
<stop offset="1" stop-color="#00A88F"/>
</linearGradient>
<linearGradient id="paint3_linear_31_4253" x1="344.651" y1="131.115" x2="344.651" y2="131.115" gradientUnits="userSpaceOnUse">
<stop stop-color="#00D0AE"/>
<stop offset="1" stop-color="#00A88F"/>
</linearGradient>
<linearGradient id="paint4_linear_31_4253" x1="302.651" y1="322.115" x2="302.651" y2="322.115" gradientUnits="userSpaceOnUse">
<stop stop-color="#00D0AE"/>
<stop offset="1" stop-color="#00A88F"/>
</linearGradient>
<linearGradient id="paint5_linear_31_4253" x1="221.651" y1="310.115" x2="221.651" y2="310.115" gradientUnits="userSpaceOnUse">
<stop stop-color="#00D0AE"/>
<stop offset="1" stop-color="#00A88F"/>
</linearGradient>
<linearGradient id="paint6_linear_31_4253" x1="292.651" y1="275.115" x2="292.651" y2="275.115" gradientUnits="userSpaceOnUse">
<stop stop-color="#00D0AE"/>
<stop offset="1" stop-color="#00A88F"/>
</linearGradient>
<linearGradient id="paint7_linear_31_4253" x1="362.651" y1="180.115" x2="362.651" y2="180.115" gradientUnits="userSpaceOnUse">
<stop stop-color="#00D0AE"/>
<stop offset="1" stop-color="#00A88F"/>
</linearGradient>
<linearGradient id="paint8_linear_31_4253" x1="277.651" y1="219.115" x2="277.651" y2="219.115" gradientUnits="userSpaceOnUse">
<stop stop-color="#00D0AE"/>
<stop offset="1" stop-color="#00A88F"/>
</linearGradient>
<linearGradient id="paint9_linear_31_4253" x1="218.651" y1="197.115" x2="218.651" y2="197.115" gradientUnits="userSpaceOnUse">
<stop stop-color="#00D0AE"/>
<stop offset="1" stop-color="#00A88F"/>
</linearGradient>
<linearGradient id="paint10_linear_31_4253" x1="242.651" y1="137.115" x2="242.651" y2="137.115" gradientUnits="userSpaceOnUse">
<stop stop-color="#00D0AE"/>
<stop offset="1" stop-color="#00A88F"/>
</linearGradient>
<linearGradient id="paint11_linear_31_4253" x1="278.651" y1="146.115" x2="278.651" y2="146.115" gradientUnits="userSpaceOnUse">
<stop stop-color="#00D0AE"/>
<stop offset="1" stop-color="#00A88F"/>
</linearGradient>
<linearGradient id="paint12_linear_31_4253" x1="274.651" y1="116.115" x2="274.651" y2="116.115" gradientUnits="userSpaceOnUse">
<stop stop-color="#00D0AE"/>
<stop offset="1" stop-color="#00A88F"/>
</linearGradient>
<linearGradient id="paint13_linear_31_4253" x1="254.187" y1="122.787" x2="254.187" y2="122.787" gradientUnits="userSpaceOnUse">
<stop stop-color="#008271"/>
<stop offset="1" stop-color="#00685A"/>
</linearGradient>
<linearGradient id="paint14_linear_31_4253" x1="268.187" y1="142.787" x2="268.187" y2="142.787" gradientUnits="userSpaceOnUse">
<stop stop-color="#008271"/>
<stop offset="1" stop-color="#00685A"/>
</linearGradient>
<linearGradient id="paint15_linear_31_4253" x1="255.187" y1="151.787" x2="255.187" y2="151.787" gradientUnits="userSpaceOnUse">
<stop stop-color="#008271"/>
<stop offset="1" stop-color="#00685A"/>
</linearGradient>
<linearGradient id="paint16_linear_31_4253" x1="232.187" y1="202.787" x2="232.187" y2="202.787" gradientUnits="userSpaceOnUse">
<stop stop-color="#008271"/>
<stop offset="1" stop-color="#00685A"/>
</linearGradient>
<linearGradient id="paint17_linear_31_4253" x1="210.187" y1="217.787" x2="210.187" y2="217.787" gradientUnits="userSpaceOnUse">
<stop stop-color="#008271"/>
<stop offset="1" stop-color="#00685A"/>
</linearGradient>
<linearGradient id="paint18_linear_31_4253" x1="151.187" y1="201.787" x2="151.187" y2="201.787" gradientUnits="userSpaceOnUse">
<stop stop-color="#008271"/>
<stop offset="1" stop-color="#00685A"/>
</linearGradient>
<linearGradient id="paint19_linear_31_4253" x1="255.187" y1="299.581" x2="255.187" y2="299.581" gradientUnits="userSpaceOnUse">
<stop stop-color="#008271"/>
<stop offset="1" stop-color="#00685A"/>
</linearGradient>
<linearGradient id="paint20_linear_31_4253" x1="262.187" y1="360.517" x2="262.187" y2="360.517" gradientUnits="userSpaceOnUse">
<stop stop-color="#008271"/>
<stop offset="1" stop-color="#00685A"/>
</linearGradient>
<linearGradient id="paint21_linear_31_4253" x1="504.187" y1="306.517" x2="504.187" y2="306.517" gradientUnits="userSpaceOnUse">
<stop stop-color="#008271"/>
<stop offset="1" stop-color="#00685A"/>
</linearGradient>
<linearGradient id="paint22_linear_31_4253" x1="334.565" y1="42.5168" x2="334.565" y2="42.5168" gradientUnits="userSpaceOnUse">
<stop stop-color="#008271"/>
<stop offset="1" stop-color="#00685A"/>
</linearGradient>
</defs>
</svg>
