<svg width="40" height="36" viewBox="0 0 40 36" fill="none" xmlns="http://www.w3.org/2000/svg">
<path d="M37.9304 0.675317C37.5414 -0.192821 36.4302 -0.227546 35.9649 0.591976C33.8119 4.33539 29.9574 6.66894 25.5542 6.66894H19.9981C12.6363 6.66894 6.6635 12.6417 6.6635 20.0035C6.6635 20.4897 6.71906 20.955 6.76768 21.4273C11.1987 18.2534 17.5951 15.5587 26.6654 15.5587C27.2766 15.5587 27.7766 16.0587 27.7766 16.6699C27.7766 17.2811 27.2766 17.7811 26.6654 17.7811C9.20541 17.7811 1.80193 28.4835 0.162883 32.5047C-0.295494 33.6368 0.246224 34.9286 1.37828 35.3939C2.51727 35.8662 3.80906 35.3175 4.28133 34.1924C4.38551 33.9424 5.73286 30.8657 9.27486 27.9001C11.5251 30.949 15.8033 33.859 21.4218 33.2617C32.3257 32.47 40 22.6913 40 10.7179C40 7.2315 39.2499 3.62004 37.9304 0.675317Z" fill="url(#paint0_linear_31_4462)"/>
<defs>
<linearGradient id="paint0_linear_31_4462" x1="20" y1="0" x2="20" y2="35.5637" gradientUnits="userSpaceOnUse">
<stop stop-color="#008271"/>
<stop offset="1" stop-color="#00B39B"/>
</linearGradient>
</defs>
</svg>
